<svg version="1.2" baseProfile="tiny-ps" xmlns="http://www.w3.org/2000/svg" viewBox="0 0 320 145" width="320" height="145">
	<title>image</title>
	<defs>
		<clipPath clipPathUnits="userSpaceOnUse" id="cp1">
			<path d="M0.16 0L319.5 0L319.5 145L0.16 145L0.16 0Z" />
		</clipPath>
	</defs>
	<style>
		tspan { white-space:pre }
		.shp0 { fill: #acdcf7 } 
		.shp1 { fill: #dfebfd } 
		.shp2 { fill: #bed7fb } 
		.shp3 { fill: #9ec3f6 } 
		.shp4 { fill: #cde0fb } 
		.shp5 { fill: #ffffff } 
		.shp6 { fill: #adcbf9 } 
		.shp7 { fill: #d86713 } 
		.shp8 { fill: #f99746 } 
		.shp9 { fill: #ee9849 } 
		.shp10 { fill: #f1a34f } 
		.shp11 { opacity: 0.4;fill: #d86713 } 
		.shp12 { fill: #699dee } 
		.shp13 { fill: #e9f3fe } 
		.shp14 { fill: #afcdfb } 
		.shp15 { fill: #2b478b } 
		.shp16 { fill: #233862 } 
		.shp17 { fill: #c65447 } 
		.shp18 { fill: #ffb27d } 
		.shp19 { fill: #e2915a } 
		.shp20 { fill: #fcecdb } 
		.shp21 { fill: #548ee2 } 
		.shp22 { fill: #f4d2b8 } 
		.shp23 { fill: #568cdb } 
		.shp24 { fill: #b5453c } 
		.shp25 { fill: #ed7d2b } 
		.shp26 { fill: #ed975d } 
		.shp27 { fill: #ebf3ff } 
		.shp28 { fill: #2e3552 } 
	</style>
	<g id="Clip-Path" clip-path="url(#cp1)">
		<g id="Layer">
			<path id="Layer" class="shp0" d="M21.5 144.65C21.5 144.65 -15.46 110.26 15.25 73.03C42.5 40 74.27 42.25 97.58 55.66C107.51 61.37 136.13 56.36 160.5 22.75C193.72 -23.09 308.89 4.71 287.89 75.24C277.73 109.37 318.81 110.61 297.88 144.73L21.5 144.65Z" />
			<path id="Layer" class="shp1" d="M51.37 98.07L25.21 118.93L49.28 141.6L75.44 120.73L51.37 98.07Z" />
			<path id="Layer" class="shp2" d="M51.37 98.07L25.21 118.93L30.06 123.5L56.22 102.63L51.37 98.07Z" />
			<path id="Layer" class="shp3" d="M127.77 8.77L145.7 10.99L133.8 3.96L133.19 6.21L128.83 6.9L127.77 8.77Z" />
			<path id="Layer" class="shp4" d="M145.7 10.99L130.78 4.32L116.15 3.68L145.7 10.99Z" />
			<path id="Layer" class="shp4" d="M133.8 3.96L145.7 10.99L136.49 0L133.8 3.96Z" />
			<path id="Layer" class="shp5" d="M228.07 39.43L223.56 42.24L219.03 39.46C220.03 38.24 221.69 37.43 223.56 37.43C225.42 37.43 227.07 38.22 228.07 39.43Z" />
			<path id="Layer" class="shp5" d="M223.56 30.59C219.03 30.59 215.02 32.55 212.59 35.53L215.45 37.28C217.25 35.07 220.22 33.63 223.56 33.63C226.88 33.63 229.83 35.05 231.63 37.23L234.48 35.45C232.04 32.51 228.05 30.59 223.56 30.59Z" />
			<path id="Layer" class="shp5" d="M223.56 17.6C213.97 17.6 205.48 21.73 200.34 28.05L203.2 29.79C207.71 24.26 215.16 20.63 223.56 20.63C231.9 20.63 239.3 24.2 243.82 29.66L246.66 27.89C241.5 21.66 233.08 17.6 223.56 17.6Z" />
			<path id="Layer" class="shp5" d="M223.56 24.71C216.74 24.71 210.68 27.63 207 32.12L209.86 33.86C212.91 30.17 217.91 27.75 223.56 27.75C229.16 27.75 234.13 30.13 237.19 33.77L240.03 32.01C236.34 27.58 230.33 24.71 223.56 24.71Z" />
			<path id="Layer" fill-rule="evenodd" class="shp6" d="M130.26 61.05C128.83 63.07 125.25 64.6 119.81 65.58C117.14 70.91 113.36 75.73 108.58 79.87C92.72 93.57 69.49 96.91 50.01 89.79C43.65 87.45 37.94 84.11 33.03 79.87C24.35 72.35 19.07 62.6 17.74 52.54C16.04 51.91 14.41 51.28 12.89 50.63C1.86 45.95 -1.58 41.14 0.94 37.56C3.11 34.48 9.08 32.78 20.23 32.2C21.16 29.79 22.44 27.27 23.77 25.15C23.77 25.15 23.77 25.15 23.77 25.15C17.83 17.93 16.21 11.74 19.2 7.63C22.34 3.31 30.07 1.99 40.97 3.9C43.13 4.28 45.37 4.78 47.67 5.39C47.67 5.39 47.67 5.39 47.68 5.38C54.82 2.4 62.68 0.84 70.81 0.84C85.3 0.84 98.68 5.82 108.58 14.4C118.81 23.24 124.24 35.05 124.24 47.13C124.24 52.71 123.11 58.15 120.87 63.31C123.83 62.57 125.81 61.59 126.64 60.41C127.46 59.24 127.17 57.87 125.84 56.38L129.97 56.46C131.13 58.1 131.25 59.65 130.26 61.05ZM121.13 47.13C121.13 44.12 120.78 41.15 120.09 38.26C109.2 38.97 97.86 38.93 87 37.54C85.66 41.94 84.01 46.52 82.07 51.14C81.35 52.86 80.61 54.54 79.85 56.2C82.74 57.03 85.55 57.69 88.23 58.16C91.3 58.7 94.1 58.97 96.55 58.97C101.68 58.97 105.34 57.81 106.98 55.56C107.03 55.48 107.09 55.4 107.14 55.31L110.31 55.31C110.09 55.87 109.79 56.4 109.43 56.9C107.23 59.93 102.77 61.49 96.54 61.49C93.89 61.49 90.91 61.2 87.65 60.63C84.81 60.13 81.82 59.42 78.75 58.53C77.95 60.18 77.13 61.8 76.3 63.37C86.21 64.51 95.61 65.06 103.8 64.98C109.07 64.93 113.59 64.6 117.21 64.04C119.81 58.68 121.13 52.99 121.13 47.13ZM56.09 85.48C58.34 83.97 60.93 81.43 63.58 78.14C64.97 76.42 66.36 74.51 67.73 72.46C61.63 70.2 55.37 68.32 49.04 66.86C48.6 69.1 48.27 71.25 48.07 73.27C47.67 77.26 47.78 80.65 48.39 83.06C48.78 84.58 49.56 86.5 51.1 86.99C52.65 87.47 54.67 86.43 56.09 85.48ZM72.4 64.8C66.99 64.13 61.46 63.29 55.92 62.31C54.03 61.97 52.16 61.62 50.32 61.26C50.04 62.33 49.78 63.4 49.55 64.44C56.18 65.96 62.74 67.93 69.13 70.31C70.23 68.56 71.33 66.72 72.4 64.8ZM73.37 63.02C74.29 61.31 75.19 59.54 76.07 57.72C69.07 55.48 61.67 52.33 54.39 48.45C52.99 52.19 51.8 55.86 50.82 59.38C52.89 59.79 55 60.19 57.14 60.57C62.61 61.54 68.05 62.36 73.37 63.02ZM27.35 25.11C27.35 25.11 27.35 25.11 27.35 25.11C33.25 31.77 42.25 38.65 52.88 44.65C53.2 43.86 53.52 43.07 53.85 42.27C55.63 38.02 57.57 33.93 59.6 30.09C51.21 26.17 43.42 20.25 39.37 13.07C34.52 16.44 30.46 20.51 27.35 25.11ZM83.97 6.31C82.59 6.31 81.01 7.15 79.83 7.94C77.58 9.45 75 11.98 72.35 15.27C69.28 19.08 66.22 23.75 63.32 28.99C70.12 31.85 77.51 33.67 84.9 34.77C86.4 29.48 87.41 24.52 87.85 20.15C88.25 16.15 88.14 12.77 87.53 10.36C87.15 8.83 86.36 6.91 84.82 6.43C84.55 6.34 84.27 6.31 83.97 6.31ZM62.12 31.21C60.14 34.95 58.25 38.95 56.51 43.11C56.11 44.08 55.72 45.04 55.34 46C62.68 49.95 70.14 53.15 77.17 55.39C77.94 53.73 78.69 52.03 79.41 50.31C81.28 45.83 82.89 41.4 84.2 37.15C76.55 35.99 69.05 34.12 62.12 31.21ZM88.81 6.39C91.1 9.66 91.16 15.46 90.67 20.36C90.23 24.79 89.21 29.81 87.7 35.15C97.2 36.34 107.83 36.57 119.43 35.84C117.24 28.74 112.91 21.94 106.39 16.29C101.38 11.94 95.45 8.6 88.81 6.39ZM41.68 11.56C45.28 18.35 52.82 24.11 60.8 27.87C63.76 22.53 66.89 17.76 70.03 13.87C73.09 10.06 77.13 5.91 81.08 4.42C77.73 3.82 74.3 3.52 70.81 3.52C60.21 3.52 50.09 6.38 41.68 11.56ZM25.38 22.74C25.38 22.74 25.38 22.74 25.38 22.74C30.19 16.08 36.64 10.76 43.97 7.09C43.97 7.09 43.97 7.09 43.97 7.09C42.76 6.81 41.56 6.57 40.4 6.37C37.33 5.83 34.53 5.56 32.08 5.56C26.94 5.56 23.29 6.72 21.65 8.97C19.48 11.96 20.84 16.91 25.38 22.74ZM22.82 33.96C20.79 39.55 20.05 45.48 20.73 51.33C28.88 54.32 39.19 56.95 48.07 58.81C49.11 55.04 50.41 51.11 51.92 47.11C41.22 41.14 32.06 34.25 25.84 27.52C25.84 27.52 25.84 27.52 25.84 27.52C24.65 29.56 23.6 31.8 22.82 33.96ZM17.49 50.11C17.12 44.75 17.74 39.33 19.52 34.12C10.68 34.68 4.9 36.21 3.31 38.47C1.35 41.25 5.74 45.18 15.36 49.24C16.05 49.54 16.75 49.83 17.49 50.11ZM21.07 53.71C21.49 56.16 22.15 58.56 23.05 60.91C26.68 60.98 34.51 61.4 44.95 63.46C45.57 63.58 46.19 63.7 46.8 63.83C47.03 62.81 47.29 61.76 47.56 60.7C36.18 58.35 28.18 56.08 21.07 53.71ZM35.23 77.96C38.5 80.8 42.15 83.2 46.12 85.14C44.82 81.8 44.85 77.12 45.25 73.06C45.47 70.92 45.82 68.64 46.29 66.25C45.63 66.11 44.98 65.98 44.32 65.85C35.15 64.04 27.97 63.53 24.1 63.4C26.59 68.79 30.35 73.74 35.23 77.96ZM94.54 85.59C86.91 80.84 78.79 76.77 70.33 73.45C68.87 75.66 67.38 77.7 65.9 79.55C63.02 83.12 59.28 87.01 55.55 88.7C67.79 92.08 81.96 91.42 94.54 85.59ZM116.11 66.13C112.63 66.55 108.56 66.79 103.99 66.84C102.22 66.85 100.41 66.85 98.53 66.8C91.36 66.66 83.51 66.09 75.34 65.15C74.16 67.3 72.95 69.36 71.72 71.31C80.65 74.83 89.22 79.17 97.23 84.25C100.54 82.48 103.61 80.38 106.39 77.96C110.4 74.49 113.67 70.51 116.11 66.13Z" />
			<path id="Layer" class="shp7" d="M105.25 63.68L97.86 139.8C97.86 139.8 97.08 144.41 101.04 144.42C107.56 144.44 133.46 144.42 133.46 144.42C133.46 144.42 128.56 143.46 128.62 141.3C128.69 138.75 137.25 62.96 137.25 62.96L105.25 63.68Z" />
			<path id="Layer" class="shp8" d="M135.56 143.04C134.28 143.04 109.54 143.11 103.2 143.04C100.44 143.01 99.95 140.91 99.93 139.55C99.92 138.9 100.01 138.42 100.01 138.42L100.2 136.44L100.69 131.4L101.13 126.94L101.68 121.22L102.15 116.39L107.4 62.3L139.4 61.58C139.4 61.58 135.8 93.3 133.24 116.39C132.96 118.96 132.69 121.43 132.44 123.73C132.36 124.46 132.28 125.18 132.2 125.88C131.97 128.07 131.75 130.07 131.56 131.84C131.46 132.78 131.37 133.64 131.29 134.44C130.96 137.55 130.77 139.54 130.77 139.92C130.77 140.14 130.79 140.34 130.83 140.53C131.36 142.96 135.08 143.04 135.56 143.04Z" />
			<path id="Layer" class="shp8" d="M27.52 22.26L45.51 84.9L47.98 93.48L56.36 122.65L212.07 122.65L181.18 22.26L27.52 22.26Z" />
			<path id="Layer" class="shp9" d="M27.52 22.26L25.02 22.98L53.04 124.83L56.36 122.65L27.52 22.26Z" />
			<path id="Layer" class="shp7" d="M53.04 124.83L207.8 124.83L212.07 122.65L56.36 122.65L53.04 124.83Z" />
			<path id="Layer" class="shp10" d="M107.39 144.45L140.9 144.45L140.9 143.07L107.39 143.07L107.39 144.45Z" />
			<path id="Layer" class="shp10" d="M204.53 104.15L179.26 23.59L27.27 23.59L27.27 22.26L181.18 22.26L206.36 103.97L204.53 104.15Z" />
			<path id="Layer" class="shp7" d="M132.38 124.83L132.21 125.88L100.69 131.4L101.13 126.94L101.33 124.83L132.38 124.83Z" />
			<path id="Layer" class="shp11" d="M135.56 143.04C134.28 143.04 109.54 143.11 103.2 143.04C100.43 143.01 99.95 140.91 99.93 139.55L131.29 134.44C130.96 137.55 130.77 139.54 130.77 139.92C130.77 140.14 130.79 140.34 130.83 140.54C131.36 142.96 135.08 143.04 135.56 143.04Z" />
			<path id="Layer" class="shp11" d="M124.76 102.33L56.36 122.65L47.98 93.48L124.76 102.33Z" />
			<path id="Layer" class="shp12" d="M27.52 22.26L181.18 22.26L206.11 102.94L49.91 102.94L27.52 22.26Z" />
			<path id="Layer" class="shp7" d="M138.34 113.14C137.9 111.16 135.69 109.56 133.41 109.56C131.12 109.56 129.63 111.16 130.07 113.14C130.52 115.12 132.73 116.72 135.01 116.72C137.3 116.72 138.79 115.12 138.34 113.14Z" />
			<path id="Layer" class="shp13" d="M198.86 99.45L54.99 99.45L38.7 43.2L37.45 38.89L36.38 35.21L35.53 32.27L33.88 26.58L175.68 26.58L175.78 26.9L177.49 32.27L178.43 35.21L179.6 38.89L180.97 43.2L198.86 99.45Z" />
			<path id="Layer" class="shp13" d="M198.86 99.64L54.99 99.64L38.7 43.39L37.45 39.08L36.38 35.4L35.53 32.46L33.88 26.78L175.68 26.78L175.78 27.09L177.49 32.46L178.43 35.4L179.6 39.08L180.97 43.39L198.86 99.64Z" />
			<path id="Layer" class="shp14" d="M177.49 32.27L35.53 32.27L33.88 26.58L175.63 26.58L175.78 26.9L177.49 32.27Z" />
			<path id="Layer" class="shp13" d="M37.83 29.42C37.66 28.83 38.07 28.35 38.76 28.35C39.45 28.35 40.15 28.83 40.32 29.42C40.49 30.02 40.07 30.5 39.38 30.5C38.69 30.5 38 30.02 37.83 29.42Z" />
			<path id="Layer" class="shp13" d="M44.26 30.24C44.66 29.84 44.52 29.16 43.93 28.71C43.35 28.27 42.55 28.22 42.15 28.62C41.75 29.01 41.9 29.69 42.48 30.14C43.06 30.59 43.86 30.63 44.26 30.24Z" />
			<path id="Layer" class="shp13" d="M46.41 29.42C46.24 28.83 46.66 28.35 47.35 28.35C48.04 28.35 48.73 28.83 48.9 29.42C49.07 30.02 48.66 30.5 47.97 30.5C47.28 30.5 46.59 30.02 46.41 29.42Z" />
			<path id="Layer" class="shp15" d="M99.81 99.64L85.58 99.64C85.44 98.67 85.33 97.66 85.22 96.59C85.03 94.69 84.88 92.64 84.77 90.51C84.75 90.01 84.72 89.52 84.7 89.02C84.68 88.38 84.65 87.74 84.63 87.09C84.6 85.99 84.57 84.88 84.55 83.77C84.55 83.77 84.55 83.76 84.55 83.76C84.52 82.34 84.51 80.9 84.51 79.48C84.51 79.48 84.51 79.48 84.51 79.48C84.51 79.12 84.51 78.76 84.51 78.41L84.51 78.41C84.51 78.07 84.51 77.74 84.51 77.4C84.52 74.33 84.57 71.31 84.65 68.51C84.81 62.3 85.08 57.13 85.22 54.65L85.22 54.65C85.28 53.63 85.31 53.06 85.31 53.06C85.32 53.06 85.32 53.06 85.32 53.06C85.35 53.06 85.56 53.1 85.9 53.17C86.15 53.22 86.47 53.29 86.83 53.39L86.83 53.39C87.15 53.47 87.51 53.58 87.89 53.7C87.89 53.7 87.89 53.7 87.89 53.7C88.53 53.92 89.23 54.19 89.88 54.53C89.89 54.54 89.89 54.54 89.9 54.54C90.97 55.12 91.93 55.87 92.36 56.87C92.74 57.72 93.62 62.29 94.68 68.35C94.71 68.53 94.74 68.7 94.77 68.88C95.33 72.1 95.94 75.71 96.55 79.4C97.2 83.31 97.84 87.3 98.44 91.01C98.94 94.18 99.41 97.14 99.81 99.64Z" />
			<path id="Layer" class="shp16" d="M95.82 99.64L79.27 99.64C78.95 98.45 78.65 97.31 78.39 96.24C77.66 93.29 77.18 90.87 77.21 89.57C77.22 88.96 77.49 88.48 77.94 88.12C78.25 87.87 78.66 87.67 79.13 87.51C80.52 87.05 82.53 86.98 84.63 87.09C85.35 87.13 86.07 87.19 86.78 87.27C90.72 87.68 94.37 88.52 94.37 88.52C94.37 88.52 94.62 89.38 94.91 90.88C95.12 92 95.37 93.48 95.55 95.24C95.65 96.26 95.73 97.37 95.78 98.55C95.79 98.9 95.81 99.27 95.82 99.64Z" />
			<path id="Layer" class="shp17" d="M88.18 89.59L88.01 90.62L87.21 95.66L87.07 96.52L86.57 99.64L69.32 99.64C69.19 97.58 69.06 95.57 69.04 93.81C69.04 93.62 69.03 93.43 69.03 93.24C69.03 90.6 69.3 88.65 70.17 88.15C71.16 87.59 74.45 87.75 77.94 88.12C78.29 88.16 78.64 88.2 78.99 88.24C81.03 88.47 83.06 88.77 84.7 89.02C85.55 89.15 86.3 89.27 86.87 89.37C87.69 89.5 88.18 89.59 88.18 89.59Z" />
			<path id="Layer" class="shp5" d="M69.03 55.65C69.03 55.65 78.51 50.34 85.32 53.06C86.4 53.49 87.64 54.7 88.52 55.54C90.98 57.89 95.78 95.17 95.78 95.17C95.78 95.17 82.15 99.17 69.04 93.81L69.04 55.65L69.03 55.65Z" />
			<path id="Layer" class="shp15" d="M85.85 52.92C85.85 52.92 95.45 56.33 96.75 58.95C98.05 61.57 102.28 77.65 102.28 79.54C102.28 81.42 94.92 79.96 93.74 76.92C92.75 74.39 89.44 66.63 87.69 61.72L85.85 52.92Z" />
			<path id="Layer" class="shp18" d="M83.86 55.52C81.77 55.88 78.69 55.5 76.43 54.21C77.45 52.1 77.87 50.44 78.02 49.36C78.03 49.31 78.03 49.25 78.04 49.2C78.11 48.64 78.1 48.26 78.07 48.09L83.48 48.09C83.48 48.09 84.96 48.68 84.96 49.08C84.96 49.3 84.97 49.51 84.97 49.7C84.98 50.24 85.01 50.71 85.04 51.12C85.14 52.44 85.31 53.06 85.31 53.06C85.31 53.06 85.98 55.16 83.86 55.52Z" />
			<path id="Layer" class="shp19" d="M85.04 51.12C80.93 51.81 78.55 49.86 78.02 49.36C77.94 49.29 77.9 49.25 77.9 49.25C77.95 49.23 77.99 49.21 78.04 49.2C79.57 48.66 83.03 49.09 84.97 49.7C84.98 50.24 85 50.72 85.04 51.12Z" />
			<path id="Layer" class="shp18" d="M76.68 47.32C77.41 50.74 82.5 50.63 84.7 50.41C85.32 50.35 85.71 50.28 85.71 50.28C86.41 50.12 86.8 49.17 86.98 47.92C87.34 45.45 86.89 41.82 86.41 40.89C85.68 39.5 84.31 37.99 79.19 39.08C74.06 40.17 75.74 42.94 76.68 47.32Z" />
			<path id="Layer" class="shp16" d="M86.6 38.99C85.89 38.15 84.41 37.12 83.06 36.49C80.16 35.13 76.45 36.53 76.43 36.53C72.24 38.13 71.15 40.91 73.37 45.23C75.72 49.81 77.95 49.29 77.95 49.29C77.95 49.29 77.48 49.04 77.52 47.61C77.53 47.53 77.53 47.46 77.53 47.4C77.56 47.11 77.44 46.82 77.19 46.62C76.66 46.22 76.41 45 76.85 44.66C77.37 44.26 78.11 44.75 78.35 45.13C78.55 45.4 78.92 45.5 79.27 45.31C80.57 44.6 79.72 43.17 80.97 42.29C82.21 41.42 84.74 42.15 86.61 41.46C89.06 40.67 87.13 39.62 86.6 38.99Z" />
			<path id="Layer" class="shp15" d="M87.27 99.64L66.63 99.64C66.77 95.93 66.96 91.5 67.16 87.02C67.21 85.85 67.27 84.69 67.32 83.53C67.34 83.04 67.37 82.55 67.39 82.06C67.84 72.1 68.3 63.11 68.39 62.63C68.61 61.53 68.81 60.6 69.03 59.79C69.68 57.43 70.49 56.14 72.25 55.02C72.42 54.91 73.82 54.3 75.06 53.76C76.07 53.33 76.97 52.95 77 52.94L77 52.94L77 52.94C77.21 53.02 77.43 53.27 77.67 53.64C77.91 54 78.16 54.49 78.41 55.06C79.36 57.16 80.38 60.37 81.08 62.77C81.09 62.78 81.09 62.78 81.09 62.78C81.09 62.78 81.09 62.78 81.09 62.79C81.09 62.79 81.09 62.79 81.09 62.79C81.54 64.34 81.87 65.54 81.96 65.89C82.12 66.48 82.33 67.61 82.58 69.14L82.58 69.14C82.91 71.23 83.31 74.07 83.73 77.28L83.73 77.28C83.77 77.62 83.82 77.95 83.86 78.29C83.91 78.67 83.96 79.06 84.01 79.46L84.01 79.46C84.03 79.58 84.04 79.71 84.06 79.84L84.06 79.84C84.22 81.11 84.39 82.43 84.55 83.76C84.55 83.76 84.55 83.77 84.55 83.77C84.69 84.87 86.62 85.67 86.75 86.79C86.76 86.87 86.77 87.04 86.78 87.27C86.81 87.74 86.84 88.49 86.87 89.37C86.89 89.75 86.9 90.16 86.92 90.58C87 92.45 87.09 94.5 87.19 95.48C87.2 95.53 87.2 95.59 87.21 95.66C87.22 95.85 87.23 96.14 87.24 96.51C87.26 97.28 87.27 98.38 87.27 99.64Z" />
			<path id="Layer" class="shp16" d="M73.19 66.64C73.18 66.67 72.86 76.71 81.58 77.93C90.3 79.15 84.51 79.47 84.51 79.47C84.51 79.47 68.1 78.87 67.83 78.5C67.56 78.12 73.19 66.64 73.19 66.64Z" />
			<path id="Layer" class="shp16" d="M80.56 82.24C80.56 82.24 80.39 82.34 80.08 82.52C80.07 82.52 80.07 82.53 80.06 82.53C78.73 83.26 74.78 85.27 69.03 86.62C68.43 86.76 67.81 86.89 67.16 87.02C67.21 85.85 67.27 84.69 67.32 83.53C66.56 83.48 65.83 83.39 65.16 83.27C65.18 83.12 65.21 82.96 65.23 82.81C65.96 82.55 66.69 82.3 67.39 82.06C67.96 81.87 68.51 81.68 69.03 81.51C71.39 80.74 73.14 80.21 73.14 80.21L80.13 82.13L80.56 82.24Z" />
			<path id="Layer" class="shp15" d="M82.41 82.08C82.41 82.08 81.51 82.27 80.08 82.52C80.07 82.52 80.07 82.52 80.06 82.52C77.43 82.98 72.99 83.63 69.03 83.59C68.45 83.59 67.88 83.57 67.32 83.53C66.56 83.48 65.83 83.39 65.16 83.27C63.71 83 62.5 82.56 61.71 81.86C55.82 76.66 64.92 58 66.83 56.18C69.07 54.06 73.15 53.32 75.4 53.06C75.49 53.05 75.58 53.04 75.67 53.03C76.46 52.95 76.97 52.94 77 52.93C77 52.93 77 52.93 77 52.93C77 52.93 76.83 53.43 76.53 54.26C76.41 54.58 76.28 54.96 76.14 55.38C74.75 59.3 72.08 67.02 70.91 71.37C70.47 72.96 70.24 74.1 70.35 74.44C70.81 75.93 75.57 76.69 78.58 77.03C79.84 77.17 80.8 77.24 81.01 77.25C81.03 77.25 81.04 77.25 81.05 77.26L81.23 77.88L81.65 79.36L82.06 80.82L82.41 82.08Z" />
			<path id="Layer" class="shp8" d="M98.84 91.02L78.61 90.28L82.71 68.44L102.94 69.17L98.84 91.02Z" />
			<path id="Layer" class="shp18" d="M81.05 77.26C81.05 77.26 84.99 77.02 85.19 77.81C85.65 79.67 81.8 81.19 80.56 81.09C79.31 80.98 80.15 77.13 81.05 77.26Z" />
			<path id="Layer" class="shp18" d="M101.83 73.61C101.83 73.61 98.06 72.59 97.66 73.32C96.72 75.04 100.05 77.29 101.29 77.44C102.53 77.58 102.75 73.67 101.83 73.61Z" />
			<path id="Layer" class="shp16" d="M77.41 51.84C77.41 51.84 75.75 52.52 74.92 53.56C74.92 53.56 81.12 62.87 81.09 62.79C81.06 62.7 78.99 53.03 77.41 51.84Z" />
			<path id="Layer" class="shp16" d="M85.12 51.97C85.67 52.15 86.71 53.08 86.95 53.59L87.69 61.72C87.69 61.72 86.11 55.75 85.31 53.06C85.11 52.37 85.15 52.16 85.12 51.97Z" />
			<path id="Layer" class="shp17" d="M89.42 68.68C89.42 68.68 89.58 68.07 90.5 68.15C91.42 68.22 96.59 68.44 96.59 68.44C96.59 68.44 97.59 68.42 97.5 68.98L89.42 68.68Z" />
			<path id="Layer" class="shp5" d="M83.48 48.09C83.48 48.09 84.15 48.62 85.24 48.46C85.88 48.36 86.24 47.63 86.24 47.63C86.24 47.63 85 47.44 83.48 48.09Z" />
			<path id="Layer" class="shp5" d="M179.34 54.89L164.4 54.94L159.55 38.86L174.49 38.81L179.34 54.89Z" />
			<path id="Layer" class="shp6" d="M170.79 40.93L164.52 40.95L164.45 40.71L170.71 40.69L170.79 40.93Z" />
			<path id="Layer" class="shp6" d="M171.79 41.59L163.92 41.61L163.85 41.37L171.72 41.35L171.79 41.59Z" />
			<path id="Layer" class="shp6" d="M173.95 44.86L163.73 44.89L163.66 44.65L173.88 44.62L173.95 44.86Z" />
			<path id="Layer" class="shp6" d="M174.19 45.64L163.97 45.67L163.9 45.44L174.12 45.4L174.19 45.64Z" />
			<path id="Layer" class="shp6" d="M174.42 46.42L164.2 46.46L164.13 46.22L174.35 46.19L174.42 46.42Z" />
			<path id="Layer" class="shp6" d="M174.66 47.21L164.44 47.24L164.37 47L174.59 46.97L174.66 47.21Z" />
			<path id="Layer" class="shp6" d="M174.9 47.99L164.68 48.02L164.6 47.79L174.82 47.75L174.9 47.99Z" />
			<path id="Layer" class="shp6" d="M175.47 49.9L165.25 49.93L165.18 49.69L175.4 49.66L175.47 49.9Z" />
			<path id="Layer" class="shp6" d="M175.71 50.68L165.49 50.72L165.42 50.48L175.63 50.45L175.71 50.68Z" />
			<path id="Layer" class="shp6" d="M175.94 51.47L165.72 51.5L165.65 51.26L175.87 51.23L175.94 51.47Z" />
			<path id="Layer" class="shp6" d="M176.18 52.25L165.96 52.28L165.89 52.05L176.11 52.01L176.18 52.25Z" />
			<path id="Layer" class="shp6" d="M176.41 53.03L166.2 53.07L166.13 52.83L176.34 52.8L176.41 53.03Z" />
			<path id="Layer" class="shp5" d="M185.36 74.86L170.42 74.91L165.57 58.84L180.51 58.79L185.36 74.86Z" />
			<path id="Layer" class="shp6" d="M176.81 60.9L170.54 60.92L170.47 60.68L176.74 60.66L176.81 60.9Z" />
			<path id="Layer" class="shp6" d="M177.81 61.56L169.94 61.59L169.87 61.35L177.74 61.32L177.81 61.56Z" />
			<path id="Layer" class="shp6" d="M179.97 64.83L169.75 64.86L169.68 64.63L179.9 64.59L179.97 64.83Z" />
			<path id="Layer" class="shp6" d="M180.21 65.62L169.99 65.65L169.92 65.41L180.14 65.38L180.21 65.62Z" />
			<path id="Layer" class="shp6" d="M180.44 66.4L170.22 66.43L170.15 66.19L180.37 66.16L180.44 66.4Z" />
			<path id="Layer" class="shp6" d="M180.68 67.18L170.46 67.22L170.39 66.98L180.61 66.95L180.68 67.18Z" />
			<path id="Layer" class="shp6" d="M180.92 67.97L170.7 68L170.63 67.76L180.84 67.73L180.92 67.97Z" />
			<path id="Layer" class="shp6" d="M181.49 69.87L171.27 69.91L171.2 69.67L181.42 69.64L181.49 69.87Z" />
			<path id="Layer" class="shp6" d="M181.73 70.66L171.51 70.69L171.44 70.45L181.66 70.42L181.73 70.66Z" />
			<path id="Layer" class="shp6" d="M181.96 71.44L171.75 71.47L171.67 71.24L181.89 71.2L181.96 71.44Z" />
			<path id="Layer" class="shp6" d="M182.2 72.23L171.98 72.26L171.91 72.02L182.13 71.99L182.2 72.23Z" />
			<path id="Layer" class="shp6" d="M182.44 73.01L172.22 73.04L172.15 72.8L182.37 72.77L182.44 73.01Z" />
			<path id="Layer" class="shp5" d="M191.42 94.97L176.48 95.02L171.63 78.94L186.57 78.9L191.42 94.97Z" />
			<path id="Layer" class="shp6" d="M182.87 81.01L176.6 81.03L176.53 80.79L182.8 80.77L182.87 81.01Z" />
			<path id="Layer" class="shp6" d="M183.87 81.67L176 81.69L175.93 81.46L183.8 81.43L183.87 81.67Z" />
			<path id="Layer" class="shp6" d="M186.03 84.94L175.81 84.97L175.74 84.74L185.96 84.7L186.03 84.94Z" />
			<path id="Layer" class="shp6" d="M186.27 85.72L176.05 85.76L175.98 85.52L186.2 85.49L186.27 85.72Z" />
			<path id="Layer" class="shp6" d="M186.5 86.51L176.29 86.54L176.22 86.3L186.43 86.27L186.5 86.51Z" />
			<path id="Layer" class="shp6" d="M186.74 87.29L176.52 87.32L176.45 87.09L186.67 87.05L186.74 87.29Z" />
			<path id="Layer" class="shp6" d="M186.98 88.08L176.76 88.11L176.69 87.87L186.91 87.84L186.98 88.08Z" />
			<path id="Layer" class="shp6" d="M187.55 89.98L177.34 90.02L177.26 89.78L187.48 89.75L187.55 89.98Z" />
			<path id="Layer" class="shp6" d="M187.79 90.77L177.57 90.8L177.5 90.56L187.72 90.53L187.79 90.77Z" />
			<path id="Layer" class="shp6" d="M188.02 91.55L177.81 91.58L177.73 91.35L187.95 91.31L188.02 91.55Z" />
			<path id="Layer" class="shp6" d="M188.26 92.33L178.04 92.37L177.97 92.13L188.19 92.1L188.26 92.33Z" />
			<path id="Layer" class="shp6" d="M188.5 93.12L178.28 93.15L178.21 92.91L188.43 92.88L188.5 93.12Z" />
			<path id="Layer" class="shp5" d="M171.77 95.11L119.51 95.27L104.47 45.38L111.28 39.02L154.82 38.88L171.77 95.11Z" />
			<path id="Layer" class="shp6" d="M140.43 47.32L122.01 47.38L121.8 46.68L140.22 46.62L140.43 47.32Z" />
			<path id="Layer" class="shp6" d="M143.37 49.26L120.24 49.33L120.03 48.63L143.16 48.56L143.37 49.26Z" />
			<path id="Layer" class="shp6" d="M149.73 58.88L119.69 58.97L119.48 58.27L149.52 58.18L149.73 58.88Z" />
			<path id="Layer" class="shp6" d="M150.42 61.18L120.39 61.28L120.17 60.58L150.21 60.48L150.42 61.18Z" />
			<path id="Layer" class="shp6" d="M151.12 63.48L121.08 63.58L120.87 62.88L150.91 62.79L151.12 63.48Z" />
			<path id="Layer" class="shp6" d="M151.81 65.79L121.78 65.89L121.56 65.19L151.6 65.09L151.81 65.79Z" />
			<path id="Layer" class="shp6" d="M152.51 68.09L122.47 68.19L122.26 67.49L152.29 67.39L152.51 68.09Z" />
			<path id="Layer" class="shp6" d="M154.2 73.7L124.16 73.8L123.95 73.1L153.99 73L154.2 73.7Z" />
			<path id="Layer" class="shp6" d="M154.89 76L124.85 76.1L124.64 75.4L154.68 75.3L154.89 76Z" />
			<path id="Layer" class="shp6" d="M155.59 78.31L125.55 78.4L125.34 77.7L155.38 77.61L155.59 78.31Z" />
			<path id="Layer" class="shp6" d="M156.28 80.61L126.24 80.71L126.03 80.01L156.07 79.91L156.28 80.61Z" />
			<path id="Layer" class="shp6" d="M156.97 82.92L126.94 83.01L126.73 82.31L156.76 82.22L156.97 82.92Z" />
			<path id="Layer" class="shp6" d="M104.47 45.38L113.18 45.35L111.28 39.02L104.47 45.38Z" />
			<path id="Layer" class="shp20" d="M230.35 134.24L187.8 134.24L187.8 121.22L230.48 121.22C233.8 121.22 236.49 123.55 236.49 126.43L236.49 128.92C236.49 131.86 233.74 134.24 230.35 134.24Z" />
			<path id="Layer" class="shp12" d="M272.81 126.58L272.81 128.54C272.81 129.58 272.48 130.56 271.91 131.41C270.77 133.1 268.65 134.24 266.22 134.24L186.5 134.24C185.97 134.24 185.54 133.87 185.54 133.41L185.54 133.12C185.54 132.66 185.97 132.29 186.5 132.29L235.1 132.29C235.36 132.02 235.59 131.72 235.78 131.41C236.24 130.66 236.49 129.81 236.49 128.91L236.49 126.42C236.49 125.97 236.42 125.52 236.29 125.1C236.08 124.38 235.69 123.73 235.17 123.17L186.5 123.17C185.97 123.17 185.54 122.8 185.54 122.34L185.54 122.05C185.54 121.59 185.97 121.22 186.5 121.22L266.62 121.22C269.45 121.22 271.83 122.86 272.57 125.1C272.73 125.57 272.81 126.06 272.81 126.58Z" />
			<path id="Layer" class="shp21" d="M272.57 125.1L236.3 125.1C236.08 124.38 235.69 123.73 235.17 123.17L186.5 123.17C185.97 123.17 185.54 122.8 185.54 122.34L185.54 122.05C185.54 121.59 185.97 121.22 186.5 121.22L266.63 121.22C269.45 121.22 271.83 122.86 272.57 125.1Z" />
			<path id="Layer" class="shp22" d="M187.8 127.73L193.71 127.95L187.8 128.08L187.8 127.73Z" />
			<path id="Layer" class="shp22" d="M187.8 129.77L201.84 129.99L187.8 130.12L187.8 129.77Z" />
			<path id="Layer" class="shp15" d="M197.95 144.34L243.24 144.34L243.24 134.22L197.58 134.22C194.45 134.22 191.92 136.41 191.92 139.12C191.92 142 194.62 144.34 197.95 144.34Z" />
			<path id="Layer" class="shp20" d="M240.64 144.34L292.19 144.34L292.19 134.21L240.51 134.21C237.33 134.21 234.75 136.45 234.75 139.2L234.75 139.24C234.75 142.06 237.39 144.34 240.64 144.34Z" />
			<path id="Layer" class="shp15" d="M231.31 144.34L293.98 144.34C294.46 144.34 294.85 144 294.85 143.58C294.85 143.17 294.46 142.83 293.98 142.83L231.31 142.83C230.83 142.83 230.44 143.17 230.44 143.58C230.44 144 230.83 144.34 231.31 144.34Z" />
			<path id="Layer" class="shp15" d="M231.31 135.73L293.98 135.73C294.46 135.73 294.85 135.39 294.85 134.97C294.85 134.55 294.46 134.21 293.98 134.21L231.31 134.21C230.83 134.21 230.44 134.55 230.44 134.97C230.44 135.39 230.83 135.73 231.31 135.73Z" />
			<path id="Layer" class="shp22" d="M292.19 139.28L285.22 139.45L292.19 139.55L292.19 139.28Z" />
			<path id="Layer" class="shp22" d="M292.19 136.95L275.62 137.12L292.19 137.22L292.19 136.95Z" />
			<path id="Layer" class="shp12" d="M275.79 137.08C275.79 137.08 276.5 137.52 276.74 138.23C276.78 138.36 276.8 138.49 276.81 138.63C276.85 139.58 276.81 141.73 276.81 141.73L278.91 140.66L281 141.73L281 138.82C281 138.27 280.82 137.73 280.48 137.38C280.32 137.21 280.13 137.08 279.9 137.08L275.79 137.08Z" />
			<path id="Layer" class="shp23" d="M275.79 137.08C275.79 137.08 276.5 137.52 276.74 138.23L280.94 138.28C280.94 138.28 280.77 137.25 279.9 137.08L275.79 137.08Z" />
			<path id="Layer" class="shp20" d="M235.37 121.25L281.64 121.25L281.64 106.37L235.22 106.37C231.51 106.37 228.51 108.97 228.51 112.18L228.51 115.3C228.51 118.58 231.58 121.25 235.37 121.25Z" />
			<path id="Layer" class="shp24" d="M229.59 112.14L229.59 115.34C229.61 116.71 230.48 117.9 231.76 118.53C232.4 118.84 233.13 119.02 233.9 119.02L284.16 119.02C284.75 119.02 285.22 119.44 285.22 119.95L285.22 120.32C285.22 120.83 284.75 121.25 284.16 121.25L197.34 121.25C194.85 121.25 192.65 120.18 191.32 118.53C190.48 117.5 189.99 116.24 189.99 114.88L189.99 112.35C189.99 111.42 190.24 110.53 190.68 109.75C191.79 107.75 194.16 106.37 196.89 106.37L284.16 106.37C284.75 106.37 285.22 106.78 285.22 107.29L285.22 107.67C285.22 108.18 284.75 108.59 284.16 108.59L233.75 108.59C232.54 108.59 231.45 109.04 230.69 109.75C230.02 110.38 229.6 111.22 229.59 112.14Z" />
			<path id="Layer" class="shp22" d="M281.64 113.81L275.2 114.06L281.64 114.21L281.64 113.81Z" />
			<path id="Layer" class="shp22" d="M281.64 110.38L266.32 110.63L281.64 110.78L281.64 110.38Z" />
			<path id="Layer" class="shp8" d="M266.48 110.58C266.48 110.58 267.49 111.05 267.82 111.83C267.88 111.97 267.92 112.11 267.93 112.26C267.98 113.29 267.93 115.63 267.93 115.63L270.91 114.46L273.89 115.63L273.89 112.47C273.89 111.87 273.63 111.29 273.16 110.91C272.93 110.72 272.65 110.58 272.33 110.58L266.48 110.58Z" />
			<path id="Layer" class="shp25" d="M266.48 110.58C266.48 110.58 267.49 111.05 267.82 111.83L273.81 111.88C273.81 111.88 273.57 110.77 272.34 110.58L266.48 110.58Z" />
			<path id="Layer" class="shp16" d="M236.17 100.85C238.82 104.84 242.15 106.39 242.15 106.39L256.01 106.39C256.01 106.39 234.15 97.8 236.17 100.85Z" />
			<path id="Layer" class="shp18" d="M246.82 131.76C247.18 132.12 247.23 132.51 247.05 132.94C247.05 132.94 247.05 132.95 247.04 132.95C246.71 133.74 245.62 134.62 244.35 135.51C244.19 135.62 244.05 135.72 243.92 135.82C243.89 135.84 243.86 135.87 243.82 135.89C243.8 135.91 243.78 135.93 243.75 135.95C242.57 136.9 243.01 137.11 240.89 139.03C238.46 141.22 236.79 141.25 236.32 141.06C235.92 140.89 236.74 139.73 237.64 138.43C237.68 138.36 237.72 138.3 237.77 138.24C237.89 138.06 238.01 137.89 238.13 137.71C239.19 136.15 238.92 135.41 238.66 133.08C238.46 131.18 235.26 122.49 235.26 122.49L239.91 121.79C239.91 121.79 241.31 128.72 242.85 129.78C243.67 130.35 244.59 130.36 245.38 130.78C245.44 130.81 245.49 130.84 245.55 130.87C246 131.13 246.46 131.4 246.82 131.76Z" />
			<path id="Layer" class="shp16" d="M246.82 131.76C247.18 132.12 247.23 132.51 247.05 132.94C247.05 132.94 247.05 132.95 247.04 132.95C246.64 133.74 245.57 134.62 244.35 135.5C244.19 135.61 244.05 135.72 243.92 135.82C243.89 135.84 243.86 135.87 243.82 135.89C243.8 135.91 243.78 135.93 243.75 135.95C242.57 136.9 243.01 137.11 240.89 139.03C238.47 141.22 236.79 141.25 236.32 141.06C235.92 140.89 236.74 139.73 237.64 138.43C238.11 138.28 240.3 137.5 241.96 135.67C243.42 134.05 244.39 131.98 245.38 130.78C245.44 130.81 245.5 130.84 245.55 130.87C246 131.13 246.46 131.4 246.82 131.76Z" />
			<path id="Layer" class="shp18" d="M209.37 129.24C209.09 130.49 207.04 130.28 204.76 129.79C202.48 129.31 203.02 129.88 199.77 129.57C196.52 129.26 195.54 128.21 195.44 127.79C195.35 127.42 196.96 127.29 198.68 127.12C198.9 127.1 199.11 127.08 199.33 127.05C201.27 126.84 202.7 125.75 204.46 124.86C206.14 124.02 208.63 120.57 208.63 120.57L213.09 120.88C213.09 120.88 210.75 123.95 209.85 125.29C209.31 126.08 209.34 127.12 209.41 127.92C209.44 128.36 209.47 128.81 209.37 129.24Z" />
			<path id="Layer" class="shp16" d="M204.76 129.79C202.48 129.31 203.02 129.88 199.77 129.57C196.52 129.26 195.54 128.21 195.44 127.79C195.35 127.42 196.96 127.29 198.68 127.12L198.69 127.15C198.69 127.15 200.64 128.35 203.35 128.4C205.55 128.45 207.89 127.9 209.41 127.92C209.44 128.36 209.48 128.81 209.38 129.24C209.09 130.49 207.04 130.28 204.76 129.79Z" />
			<path id="Layer" class="shp16" d="M226.45 104.56L230.61 114.27L236.05 126.95C236.05 126.95 237.53 127.07 238.94 126.72C240.24 126.39 241.74 125.54 241.74 125.54C241.74 125.54 240.22 111.92 237.41 104.11C236.69 102.1 235.88 100.48 234.98 99.57C230.62 95.1 226.45 104.56 226.45 104.56Z" />
			<path id="Layer" class="shp15" d="M230.68 89.13C233.41 88.37 241.19 89.35 249.01 90.67L250.65 88.33L267.54 87.19C267.54 87.19 273.11 97.9 270.06 104.72C269.61 105.72 268.72 106.37 267.2 106.39C267.2 106.39 266.96 106.39 266.95 106.39C266.95 106.39 256.9 106.39 253.64 106.39C245.24 106.39 235.87 101.38 234.65 101.17C232.67 100.83 231.88 104.27 229.89 107.88C227.91 111.49 211.23 123.88 211.23 123.88C211.23 123.88 208.67 123.9 207.61 123.56C206.47 123.19 206.05 122.71 206.05 122.71C206.05 122.71 224.53 90.85 230.68 89.13Z" />
			<path id="Layer" class="shp16" d="M250.75 68.18C256.76 71.05 268.96 77 269.03 76.96C269.03 76.96 273.51 78.43 276.05 76.96C280.29 74.52 282.57 67.96 274.81 62.3C270.95 59.49 268.2 58.8 267.78 54.3C267.56 51.86 263.7 43.8 257.3 44.55C256.77 44.61 253.48 44.74 251.31 45.73C245.8 48.23 241.73 67.07 250.75 68.18Z" />
			<path id="Layer" class="shp18" d="M255.79 65.74C255.76 65.76 258.75 66.64 260.74 65.87C262.62 65.15 264.05 62.48 264.02 62.48C263.16 62.44 262.23 61.79 261.5 57.55L261.14 57.66L255.02 59.57C255.02 59.57 255.47 61.27 255.75 62.89C255.99 64.25 256.12 65.55 255.79 65.74Z" />
			<path id="Layer" class="shp26" d="M255.02 59.57C255.02 59.57 255.47 61.27 255.75 62.89C259.26 62.34 260.64 59.3 261.14 57.66L255.02 59.57Z" />
			<path id="Layer" class="shp18" d="M254.11 61.26C254.11 61.26 262.48 60.28 261.7 55.78C260.92 51.27 261.48 48.11 256.1 48.54C250.72 48.97 249.99 50.82 249.82 52.38C249.66 53.94 251.91 61.39 254.11 61.26Z" />
			<path id="Layer" class="shp16" d="M250.13 49.91C250.13 49.91 255.49 53.91 259.13 54.24C262.77 54.56 264.15 53.54 264.15 53.54C264.15 53.54 262 52 260.71 49.51C260.33 48.77 259.53 48.27 258.6 48.2C256 48 251.07 47.91 250.13 49.91Z" />
			<path id="Layer" class="shp16" d="M253.48 49.56C253.48 49.56 251.69 51.06 251.12 52.17C250.58 53.24 250.41 55.81 250.85 56.84C250.85 56.84 248.06 52.13 249.64 49.85C251.31 47.42 253.48 49.56 253.48 49.56Z" />
			<path id="Layer" class="shp5" d="M248.74 76.42C249 91.1 248.81 88.03 250.66 89.42C251.11 89.76 252.37 89.96 254.02 90.05C259.21 90.35 268.34 89.61 268.69 88.78C269.89 85.9 269.04 85.01 270.04 80.6C270.14 80.13 270.27 79.63 270.43 79.07C271.26 76.05 272.07 75.02 269.11 70.16C266.43 65.75 263.65 62.18 263.4 62.31C256.32 65.95 255.75 62.89 255.75 62.89C255.75 62.89 248.62 69.26 248.74 76.42Z" />
			<path id="Layer" class="shp15" d="M230.61 114.27L236.05 126.95C236.05 126.95 237.53 127.07 238.94 126.72C240.24 126.39 241.74 125.54 241.74 125.54C241.74 125.54 240.22 111.92 237.41 104.11L230.61 114.27Z" />
			<path id="Layer" class="shp5" d="M255.75 62.89C255.75 62.89 248.47 63.96 247.62 66.67C246.76 69.39 241.73 85.35 241.73 85.35C241.73 85.35 245.43 85.93 247.14 84.45C248.85 82.97 253.09 70.7 253.09 70.7L255.75 62.89Z" />
			<path id="Layer" class="shp27" d="M254.02 90.05C259.21 90.35 268.34 89.61 268.69 88.78C269.89 85.9 269.04 85.01 270.04 80.6L267.54 74.49C267.54 74.49 267.95 81.3 265.63 83.09C263.32 84.88 256.15 86.54 255.02 88.04C254.48 88.76 254.12 89.48 254.02 90.05Z" />
			<path id="Layer" class="shp18" d="M259.97 87.19C259.97 87.19 254.85 86.2 254.02 86.6C253.19 86.99 251.17 88.43 250.92 88.93C250.67 89.43 252.76 88.55 253.44 88.39C253.88 88.29 255.04 88.64 255.62 88.8C258.04 89.5 259.52 89.14 259.52 89.14L259.97 87.19Z" />
			<path id="Layer" class="shp5" d="M263.4 62.3C263.4 62.3 270.28 62.67 272.66 65.55C276.02 69.6 282.67 86.87 278.86 89.17C274.56 91.77 259.32 89.85 259.32 89.85C259.32 89.85 258.81 87.8 259.52 86.8C260.22 85.81 271.69 84.21 272.22 83.75C272.75 83.29 265.61 74.8 265.61 73.42C265.61 72.05 263.4 62.3 263.4 62.3Z" />
			<path id="Layer" class="shp18" d="M253.77 87.83C253.77 87.83 252.7 89.03 252.35 89.18C251.99 89.32 251.77 89.28 251.77 89.28L252.49 88.15L253.77 87.83Z" />
			<path id="Layer" class="shp18" d="M254.02 86.6L250.9 87.91C250.9 87.91 251.03 88.1 251.41 88.08C251.8 88.07 252.77 87.76 252.77 87.76L254.02 86.6Z" />
			<path id="Layer" class="shp8" d="M252.34 91.01L227.65 91.01L220.22 75.01L244.88 75.01L252.34 91.01Z" />
			<path id="Layer" class="shp25" d="M227.36 90.39L259.97 90.39L259.97 91.01L227.65 91.01L227.36 90.39Z" />
			<path id="Layer" class="shp5" d="M233.89 83.01C233.7 82.45 234.07 81.99 234.72 81.99C235.37 81.99 236.05 82.45 236.24 83.01C236.42 83.57 236.05 84.03 235.4 84.03C234.75 84.03 234.07 83.57 233.89 83.01Z" />
			<path id="Layer" class="shp14" d="M27.96 97.3L27.43 97.62C26.87 97.95 26.1 97.83 25.71 97.35L22.65 93.52C22.26 93.04 22.4 92.37 22.96 92.03L23.72 91.58C23.82 91.51 23.98 91.53 24.05 91.63C24.13 91.72 24.1 91.85 23.99 91.92L23.24 92.37C22.9 92.58 22.81 92.99 23.05 93.28L26.11 97.11C26.34 97.4 26.81 97.48 27.15 97.27L27.68 96.96C28.02 96.75 28.11 96.34 27.87 96.05L25.84 93.51C25.76 93.41 25.79 93.28 25.9 93.22C26.01 93.15 26.16 93.17 26.24 93.27L28.27 95.81C28.66 96.29 28.52 96.96 27.96 97.3Z" />
			<path id="Layer" class="shp14" d="M31.31 101.07L30.37 101.64C29.49 102.16 28.25 101.93 27.6 101.12L23 95.37C22.93 95.27 22.95 95.14 23.06 95.08C23.17 95.01 23.33 95.03 23.4 95.13L28 100.88C28.5 101.5 29.44 101.69 30.09 101.29L31.03 100.73C31.69 100.33 31.82 99.51 31.32 98.88L26.08 92.34C25.59 91.71 24.65 91.53 23.99 91.92C23.88 91.99 23.73 91.96 23.65 91.87C23.58 91.77 23.6 91.64 23.72 91.58C24.59 91.05 25.83 91.28 26.48 92.1L31.72 98.64C32.37 99.46 32.19 100.55 31.31 101.07Z" />
			<path id="Layer" class="shp14" d="M37.64 131.09L37.75 131.9C37.87 132.77 37.16 133.56 36.16 133.66L28.32 134.49C27.32 134.59 26.41 133.97 26.29 133.11L26.13 131.95C26.1 131.78 26.24 131.63 26.44 131.6C26.63 131.58 26.81 131.71 26.84 131.88L27 133.03C27.07 133.56 27.63 133.94 28.23 133.87L36.07 133.05C36.68 132.98 37.11 132.5 37.04 131.98L36.93 131.17C36.85 130.64 36.3 130.27 35.69 130.33L30.49 130.88C30.29 130.9 30.11 130.78 30.09 130.61C30.07 130.44 30.21 130.28 30.4 130.26L35.61 129.72C36.6 129.61 37.51 130.23 37.64 131.09Z" />
			<path id="Layer" class="shp14" d="M45.6 129.9L45.8 131.35C45.99 132.7 44.79 133.94 43.12 134.12L31.33 135.35C31.14 135.38 30.96 135.25 30.94 135.09C30.91 134.91 31.05 134.76 31.25 134.74L43.04 133.5C44.31 133.37 45.23 132.44 45.09 131.43L44.89 129.97C44.75 128.97 43.6 128.25 42.32 128.39L28.89 129.8C27.62 129.94 26.69 130.87 26.83 131.88C26.86 132.04 26.72 132.2 26.52 132.22C26.33 132.24 26.15 132.12 26.13 131.95C25.94 130.6 27.14 129.36 28.81 129.19L42.23 127.77C43.9 127.6 45.41 128.55 45.6 129.9Z" />
			<path id="Layer" class="shp8" d="M173.39 35.17C173.53 34.67 173.17 34.16 172.59 34.04C172 33.92 171.42 34.24 171.28 34.74C171.14 35.25 171.5 35.76 172.09 35.87C172.67 35.99 173.26 35.68 173.39 35.17Z" />
			<path id="Layer" class="shp28" d="M319.14 145L2.19 145C1.99 145 1.83 144.86 1.83 144.69L1.83 144.58C1.83 144.41 1.99 144.27 2.19 144.27L319.14 144.27C319.34 144.27 319.5 144.41 319.5 144.58L319.5 144.69C319.5 144.86 319.34 145 319.14 145Z" />
		</g>
	</g>
</svg>