<svg version="1.2" baseProfile="tiny-ps" xmlns="http://www.w3.org/2000/svg" viewBox="0 0 236 208" width="236" height="208">
	<title>image</title>
	<style>
		tspan { white-space:pre }
		.shp0 { fill: #acdcf7 } 
		.shp1 { fill: #f79c8d } 
		.shp2 { fill: #355389 } 
		.shp3 { fill: #f48c7f } 
		.shp4 { fill: #13375b } 
		.shp5 { fill: #f7cc7f } 
		.shp6 { fill: #86b1f2 } 
		.shp7 { fill: #f7a491 } 
		.shp8 { fill: #f47458 } 
		.shp9 { fill: #ffffff } 
		.shp10 { fill: #3c8f7c } 
		.shp11 { fill: #184655 } 
		.shp12 { fill: #b75742 } 
		.shp13 { fill: #6394db } 
		.shp14 { fill: #e5b05c } 
		.shp15 { opacity: 0.2;fill: #f47458 } 
		.shp16 { fill: #f8a492 } 
		.shp17 { fill: #50bfa5 } 
		.shp18 { fill: #0e2e35 } 
		.shp19 { fill: #dd513a } 
		.shp20 { fill: #fe875e } 
		.shp21 { fill: #466eb6 } 
		.shp22 { fill: #cae1f9 } 
		.shp23 { fill: #9bc1f9 } 
		.shp24 { opacity: 0.2;fill: #9bc1f9 } 
		.shp25 { fill: #96d9c9 } 
		.shp26 { fill: #e25a44 } 
		.shp27 { fill: #66ccb2 } 
		.shp28 { fill: #07345a } 
	</style>
	<path id="Layer" class="shp0" d="M209 57.09C204.84 60.5 198.93 64.29 194.06 65.92L201.3 67.3L171.42 102.84L111.88 120.13L41.42 195.96L96.93 195.94L125.21 150.12L181.87 116.15L203.87 68.83L208.56 74.56C207.62 69.47 208.05 62.42 209 57.09Z" />
	<path id="Layer" class="shp1" d="M31.91 137.37C31.91 137.37 28.68 131.53 27.89 130.29C27.11 129.05 25.06 124.12 24.99 123.92C24.92 123.73 26.4 121.39 26.07 121.31C25.74 121.23 25.37 122.55 25.02 122.39C24.67 122.23 23.63 119.08 23.43 119.23C23.06 119.53 23.99 121.19 23.79 121.3C23.59 121.4 22.98 119.47 22.59 119.52C22.19 119.58 23.34 121.3 23.23 121.45C23.12 121.6 21.93 119.98 21.71 120.33C21.6 120.51 22.81 121.74 22.57 121.85C22.34 121.97 21.27 121.18 21.15 121.4C21.04 121.63 22.15 121.94 22.48 122.56C22.81 123.17 23.37 123.44 23.61 124.58C23.84 125.72 24.19 129.83 25.39 131.89C26.59 133.94 29.23 138.49 29.23 138.49L31.91 137.37Z" />
	<path id="Layer" class="shp2" d="M31.01 135.47C31.01 135.47 34.58 139.36 35.11 140.92C35.65 142.49 34.6 144.72 33.15 144.82C31.7 144.92 28.48 137.93 28.48 137.93L31.01 135.47Z" />
	<path id="Layer" class="shp3" d="M47.83 163.58C47.57 163.36 47.25 163.46 46.35 163.04C46.18 162.96 45.72 162.83 45.51 162.79C45.47 162.78 45.44 162.75 45.43 162.71C45.16 161.67 43.96 156.83 43.82 155.43C43.69 154 42.78 147.96 42.64 147.03C42.63 146.97 42.57 146.93 42.51 146.95L39.89 147.69C39.83 147.7 39.8 147.75 39.81 147.81C39.98 148.53 40.98 153.06 41.28 155.35C41.51 157.18 44.21 163.04 44.26 163.41C44.26 163.42 44.27 163.42 44.27 163.42C44.28 163.54 44.38 163.62 44.49 163.62C45.16 163.62 47.29 163.62 47.41 163.62C47.52 163.62 47.91 163.65 47.83 163.58Z" />
	<path id="Layer" class="shp4" d="M41.99 144.42C40.6 140.16 39.04 140.34 39.04 140.34L40.25 149.31C41.11 149.07 42.23 148.54 43.09 148.3C42.8 146.95 42.34 145.47 41.99 144.42Z" />
	<path id="Layer" class="shp5" d="M41.56 133.32C41.13 130.52 38.62 128.5 35.98 129.86C35.39 130.17 34.59 130.79 34.18 131.32C33.08 132.75 32.79 134.52 31.65 135.91C32.07 136.23 32.58 136.57 33.18 136.89L33.89 135.93L33.65 137.13C35.42 137.98 37.91 138.69 41.32 138.66C41.75 136.71 41.79 134.82 41.56 133.32Z" />
	<path id="Layer" class="shp3" d="M42.38 195.55C41.98 195.25 41.65 195.05 40.37 194.42C40.29 194.38 39.98 194.19 39.87 194.12C39.59 193.95 39.32 193.68 39.07 193.4C38.84 193.15 38.73 192.31 38.68 191.65C38.82 190.18 40.94 166.48 41.38 163.91C41.85 161.27 41.14 157.23 41.14 157.23L39.51 156.6L36.4 167.48L36.64 175.76C36.64 175.76 35.91 178.14 35.82 179.57C35.72 181 36.87 192.57 36.87 192.57C36.87 192.98 36.86 193.36 36.81 193.59C36.73 194.03 36.26 194.92 36.47 195.32C36.69 195.73 36.93 195.83 36.93 195.83L42.52 195.92C42.83 195.93 42.63 195.73 42.38 195.55Z" />
	<path id="Layer" class="shp1" d="M33.9 156.38C33.9 156.38 31.96 159.33 31.5 161.77C31.04 164.22 31.84 171.73 30.95 174.93C30.47 176.67 28.64 179.35 28.37 181.59C28.09 183.83 27.12 190.29 27.12 190.29C26.98 190.97 26.75 191.81 26.45 192.2C26.27 192.44 25.94 192.75 25.72 193.18C25.38 193.85 25.57 194.85 25.82 195.4C25.95 195.68 25.81 195.68 26.1 195.77C26.97 196.04 27.89 195.59 28.26 194.75C28.47 194.28 28.65 193.66 28.68 192.87C28.72 192.04 28.85 191.38 28.99 190.88L35.19 175.53L39.68 162.28L40.83 155.46L33.9 156.38Z" />
	<path id="Layer" class="shp6" d="M28.43 194.31C27.09 194.56 26.19 193.76 25.73 193.17C25.39 193.84 25.22 194.85 25.47 195.4C25.69 195.89 26.34 195.87 26.85 195.89C27.38 195.91 27.8 195.61 28.07 195.14C28.19 194.92 28.32 194.64 28.43 194.31Z" />
	<path id="Layer" class="shp6" d="M39.87 194.12C38.4 194.5 37.3 194.24 36.69 193.99C36.53 194.44 36.33 195.01 36.44 195.34C36.57 195.74 36.77 195.83 36.94 195.83C38.29 195.87 41.88 195.92 42.91 195.93C43.05 195.93 43.13 195.76 43.04 195.65C42.78 195.34 39.98 194.19 39.87 194.12Z" />
	<path id="Layer" class="shp5" d="M35.16 175.56C35.27 175.57 35.39 175.58 35.51 175.58C35.52 175.58 35.52 175.59 35.53 175.59C35.64 175.59 35.76 175.6 35.87 175.6C35.88 175.6 35.89 175.61 35.9 175.61C36.01 175.61 36.13 175.62 36.25 175.62C36.25 175.62 36.26 175.62 36.26 175.62C36.38 175.63 36.5 175.63 36.62 175.64C37.94 175.68 39.58 175.66 40.63 175.48C41.17 170.08 41.36 165.14 41.56 164.05C42.04 161.4 41.14 157.22 41.14 157.22L40.72 157.15L40.99 155.6L33.78 156.52C33.78 156.52 31.76 159.47 31.28 161.91C30.8 164.36 31.64 171.87 30.71 175.07C30.71 175.07 32.77 175.4 35.16 175.56Z" />
	<path id="Layer" class="shp2" d="M35.47 139.57C35.47 139.57 32.9 139.41 31.89 140.53C30.87 141.65 34.14 150.51 34.32 151.94C34.51 153.36 33.38 157.15 33.38 157.15C33.38 157.15 39.42 158.38 41.14 157.23C41.14 157.23 41.33 146.97 41.14 145.95C40.96 144.94 39.42 140.79 39.05 140.38C38.68 139.98 35.47 139.57 35.47 139.57Z" />
	<path id="Layer" class="shp7" d="M36.33 136.1C36.33 136.1 36.31 136.18 36.29 136.31C36.17 136.93 35.73 139 35.44 139.57C35.08 140.26 36.67 142.46 38.2 142.19C38.66 142.11 37.82 140.17 37.86 139.97C37.93 139.57 38.04 139.04 38.15 138.49C38.21 138.18 38.27 137.86 38.33 137.57C38.49 136.73 38.62 136.04 38.62 136.04L36.33 136.1Z" />
	<path id="Layer" class="shp8" d="M36.29 136.31C36.31 136.18 36.33 136.1 36.33 136.1L38.62 136.04C38.62 136.04 38.49 136.73 38.33 137.57C38.27 137.86 38.21 138.17 38.15 138.48C37.79 138.43 37.42 138.25 37.05 137.93C36.65 137.57 36.38 137.14 36.22 136.68C36.25 136.53 36.27 136.4 36.29 136.31Z" />
	<path id="Layer" class="shp7" d="M37.87 130.82C37.87 130.82 36.79 130.69 36.11 131.58C35.43 132.47 34.7 135.21 36.39 136.71C38.07 138.2 39.74 136.51 39.99 134.72C40.23 132.93 40.33 130.75 37.87 130.82Z" />
	<path id="Layer" class="shp7" d="M40.49 134.69C40.28 135.09 39.95 135.31 39.73 135.18C39.52 135.06 39.5 134.63 39.71 134.24C39.91 133.84 40.24 133.62 40.46 133.75C40.68 133.87 40.69 134.29 40.49 134.69Z" />
	<path id="Layer" class="shp5" d="M37.99 130.53C37.99 130.53 36.55 133.14 35.51 133.26C34.48 133.38 34.34 134.76 34.34 134.76C34.34 134.76 34.71 131.57 35.74 130.95C36.76 130.33 37.99 130.53 37.99 130.53Z" />
	<path id="Layer" class="shp7" d="M35.78 133.91C35.87 134.38 35.7 134.8 35.4 134.86C35.11 134.92 34.81 134.6 34.72 134.13C34.64 133.67 34.81 133.24 35.1 133.18C35.39 133.12 35.7 133.45 35.78 133.91Z" />
	<path id="Layer" class="shp9" d="M37.06 135.6L38.62 135.91C38.62 135.91 38.47 136.5 37.78 136.38C36.93 136.24 37.06 135.6 37.06 135.6Z" />
	<path id="Layer" class="shp10" d="M166.02 196.12L166.66 196L163.87 181.16L163.23 181.28L166.02 196.12Z" />
	<path id="Layer" class="shp10" d="M136.32 196.19L135.55 196.19L138.43 181.16L139.07 181.28L136.32 196.19Z" />
	<path id="Layer" class="shp10" d="M158.86 196.19L158.09 196.19L160.97 181.16L161.61 181.28L158.86 196.19Z" />
	<path id="Layer" class="shp11" d="M143.36 196.19L143.99 196.2L141.23 181.22L140.59 181.34L143.36 196.19Z" />
	<path id="Layer" class="shp8" d="M154.47 148.57C157.89 148.94 162.33 149.33 166.78 156.96C171.65 165.29 169.09 177.74 165.25 181.2C161.41 184.66 148.86 188.93 138.32 182.53C138.32 182.53 131.95 178.66 135.22 172.23C140.25 162.33 139.53 160.27 141.78 156.39C144.03 152.51 147.19 147.79 154.47 148.57Z" />
	<path id="Layer" class="shp12" d="M166.78 156.96C163.74 151.75 160.71 149.92 158 149.16C159.05 150.26 160.11 151.66 161.18 153.48C166.04 161.82 163.48 174.26 159.64 177.72C156.23 180.79 145.98 184.49 136.35 180.83C137.34 181.94 138.32 182.53 138.32 182.53C148.86 188.93 161.4 184.66 165.25 181.2C169.09 177.74 171.65 165.29 166.78 156.96Z" />
	<path id="Layer" class="shp1" d="M143.47 161.24L142.58 163.91L145.27 162.84L143.47 161.24Z" />
	<path id="Layer" class="shp13" d="M146.23 153.3C146.05 153.31 145.56 153.47 144.85 154.84C143.93 156.58 142.59 161.84 142.59 161.84L146.59 163.33L147.1 162.24L147.94 153.79C147.95 153.79 146.28 153.3 146.23 153.3Z" />
	<path id="Layer" class="shp6" d="M151.51 152.54C150.37 152.54 147.54 152.88 146.23 153.3C146.23 153.3 145.27 161.63 147.1 167.96C147.51 169.38 146.76 173.84 146.76 173.84L158.6 173.68C158.6 173.68 157.2 162.91 157.72 161.16C158.25 159.42 158.26 153.36 158.26 153.36C158.26 153.36 158.18 153.35 155.6 152.9C154.4 152.69 152.73 152.54 151.51 152.54Z" />
	<path id="Layer" class="shp7" d="M152.89 189.3C152.89 189.3 152.63 192.34 152.15 193.18C151.67 194.02 152.18 195.45 152.2 195.65C152.22 195.85 153.21 196.13 154.78 195.96C156.35 195.79 156.33 195.43 156.2 194.84C156.08 194.25 155.24 193.49 155.19 192.93C155.14 192.37 155.67 190.35 155.67 190.35L152.89 189.3Z" />
	<path id="Layer" class="shp14" d="M148.1 171.33C148.1 171.33 139.93 170.87 138.1 171.99C136.28 173.1 138.43 175.38 138.43 175.38C138.43 175.38 145.08 178.29 156.22 178.93C158.86 179.09 159.09 172.02 158.59 171.43C158.1 170.85 148.1 171.33 148.1 171.33Z" />
	<path id="Layer" class="shp8" d="M154.98 196.2C156.6 196.02 156.4 195.22 156.27 194.62C156.19 194.24 155.72 193.79 155.45 193.37C155.3 193.48 155.07 193.69 154.36 193.9C153.63 194.11 152.63 193.68 152 193.41C151.77 194.26 151.76 195.35 151.78 195.51C151.81 195.72 153.36 196.37 154.98 196.2Z" />
	<path id="Layer" class="shp5" d="M154.09 177.21C153.76 179.69 152.15 192.06 152.15 192.06L155.9 192.53C155.9 192.53 160.51 176.39 160.27 173.92C160.04 171.45 158.31 171.24 158.31 171.24C158.31 171.24 154.95 170.63 154.09 177.21Z" />
	<path id="Layer" class="shp7" d="M158.4 154.28C157.29 153.87 156.75 163.9 156.6 168.03C154.64 168.21 151.22 168.03 150.37 167.96C149.97 167.93 149.05 167.59 148.65 167.54C148.24 167.49 147.87 167.46 147.67 167.49C147.6 167.5 145.56 168.35 145.38 168.53C145.16 168.76 144.58 169.34 144.68 169.59C144.78 169.83 145.81 168.89 145.81 168.89L146.31 168.61C145.68 169.22 144.49 170.03 144.66 170.32C144.83 170.61 145.91 169.79 146.67 169.23C146.01 169.83 145.2 170.9 145.38 171.06C145.55 171.22 146.48 169.98 147.48 169.62C147.84 169.49 148.21 169.85 148.5 169.9C148.72 169.93 149.04 170 149.25 169.94L150.33 169.63C150.69 169.67 150.7 169.89 151.07 169.96C151.5 170.06 152.21 170.15 152.75 170.29C155.91 171.06 156.96 171.42 157.92 171.42C160.84 171.42 161.01 155.27 158.4 154.28Z" />
	<path id="Layer" class="shp6" d="M160.5 163.7C160.7 159.47 160.67 154.26 158.32 153.37C157.38 153.02 155.75 155.13 156.04 163.79C157.3 163.89 159.15 163.97 160.5 163.7Z" />
	<path id="Layer" class="shp7" d="M141.93 191.9C141.93 191.9 142.25 192.96 141.67 193.66C141.08 194.35 138.65 195.04 138.33 195.41C138.01 195.79 138.03 196.12 138.03 196.12L144.87 195.93L144.79 193.85L144.48 192.36L141.93 191.9Z" />
	<path id="Layer" class="shp8" d="M141.24 194C141.24 194 143 194.72 143.85 194.29C144.69 193.87 144.67 193.75 144.91 193.91C145.16 194.07 145.25 196.19 145.25 196.19L137.56 196.24C137.03 196.23 136.76 195.83 137.19 195.5C137.49 195.26 137.83 195.11 138.03 194.99C138.63 194.65 141.24 194 141.24 194Z" />
	<path id="Layer" class="shp5" d="M142.18 173.28C141.66 172.16 140.46 170.7 138.34 171.58C136.32 172.42 135.78 174.47 136.42 176.58C137.06 178.68 141.24 191.05 141.39 192.75L144.73 192.77C144.73 192.77 144.13 182.98 143.98 180.61C143.83 178.33 143.1 175.21 142.18 173.28Z" />
	<path id="Layer" class="shp2" d="M136.76 161.88L147.93 161.88C148.23 161.88 148.5 162.06 148.61 162.34L152.05 170.81L158.21 170.81C158.38 170.81 158.52 170.95 158.52 171.13C158.52 171.3 158.38 171.44 158.21 171.44L140.67 171.44C140.19 171.44 139.75 171.16 139.56 170.71L136.09 162.92C135.87 162.43 136.23 161.88 136.76 161.88Z" />
	<path id="Layer" class="shp9" d="M142.77 166.82C142.85 167.2 143.18 167.45 143.51 167.38C143.84 167.32 144.04 166.96 143.97 166.57C143.9 166.19 143.56 165.94 143.24 166.01C142.9 166.07 142.7 166.44 142.77 166.82Z" />
	<path id="Layer" class="shp7" d="M152.87 148.97L153.42 152.61C153.42 152.61 151.42 156.94 150.23 156.56C149.23 156.25 149.84 152.42 149.84 152.42C149.84 152.42 150.39 150.36 150.22 149.33C150.06 148.3 152.87 148.97 152.87 148.97Z" />
	<path id="Layer" class="shp15" d="M150.23 149.33C150.06 148.3 152.87 148.97 152.87 148.97L152.92 149.27C152.83 149.48 152.73 149.65 152.61 149.78C151.98 150.46 151 150.87 150.16 150.9C150.24 150.35 150.29 149.75 150.23 149.33Z" />
	<path id="Layer" class="shp7" d="M153.33 143.83C153.41 143.8 153.97 147.97 152.91 149.12C151.85 150.27 149.8 150.64 149.06 149.74C148.24 148.74 148.28 144.25 149.93 143.07C151.57 141.89 153.33 143.83 153.33 143.83Z" />
	<path id="Layer" class="shp5" d="M150.55 140.84C151.82 141.1 152.64 141.89 152.95 142.22C153.52 142.29 154.31 142.61 155.12 143.96C156.11 145.63 155.38 147.47 154.22 148.37C153.06 149.28 153.07 150.32 153.07 150.32L152.89 149.78C152.76 149.37 152.7 148.94 152.75 148.51C152.77 148.25 152.83 147.97 152.93 147.74C153.21 147.14 152.34 146.74 152.09 146.24C151.9 145.85 151.89 144.97 151.59 144.33L151.23 143.84C151.23 143.84 150.41 143.19 149.61 143.37C148.81 143.56 148.92 140.51 150.55 140.84Z" />
	<path id="Layer" class="shp7" d="M152.14 146.98C152.14 147.49 152.36 147.9 152.66 147.91C152.95 147.91 153.19 147.51 153.2 147C153.21 146.49 152.98 146.07 152.69 146.07C152.4 146.06 152.15 146.47 152.14 146.98Z" />
	<path id="Layer" class="shp9" d="M150.72 148.39L149.12 148.31C149.12 148.31 149.13 148.92 149.83 148.98C150.68 149.05 150.72 148.39 150.72 148.39Z" />
	<path id="Layer" class="shp16" d="M182.46 128.11C182.63 128.83 182.94 129.97 182.94 129.97C182.92 130.29 182.83 131.59 182.72 133.19L185.04 132.25C185.04 132.25 185.02 129.64 185.12 129.48C185.21 129.35 185.35 129.52 186.07 128.49C186.28 128.19 186.31 127.66 186.31 127.66C186.31 127.66 186.35 127.01 186.21 126.95C186.06 126.89 185.9 126.98 185.84 127.1C185.79 127.21 185.81 127.47 185.75 127.58C185.7 127.7 185.37 127.83 185.22 127.83C185.08 127.82 185.24 125.89 185.24 125.89C185.24 125.89 185.32 125.35 185.36 125.17C185.39 125.02 185.53 124.57 185.53 124.57C185.53 124.57 185.69 123.92 185.49 123.87C185.38 123.84 185.07 124.37 184.87 124.93C184.65 125.53 184.52 126.17 184.46 126.16C184.31 126.14 184.39 125.08 184.39 125.08C184.39 125.08 184.54 124.6 184.53 124.37C184.67 124.09 184.77 123.57 184.52 123.53C184.48 123.52 184.15 124.18 184.15 124.18C184.15 124.18 184.02 124.65 183.95 124.86C183.82 125.25 183.8 125.85 183.73 126.12C183.67 126.34 183.62 126.25 183.6 126.25C183.58 126.26 183.61 125.96 183.65 125.54C183.67 125.33 183.64 125.08 183.7 124.84C183.75 124.62 183.78 124.3 183.8 124.1C183.84 123.56 183.5 123.61 183.38 124.11C183.34 124.3 183.29 124.51 183.24 124.72C183.06 125.54 183.06 126.33 182.98 126.34C182.86 126.34 182.94 124.91 182.94 124.91C182.94 124.91 182.76 124.11 182.59 124.85C182.39 125.71 182.41 126.41 182.41 126.44C182.43 126.64 182.28 127.39 182.46 128.11Z" />
	<path id="Layer" class="shp16" d="M207.15 126.22C206.98 126.94 206.66 128.07 206.66 128.07C206.69 128.39 206.78 129.69 206.89 131.29L204.56 130.35C204.56 130.35 204.59 127.75 204.49 127.59C204.4 127.45 204.25 127.62 203.54 126.59C203.33 126.29 203.29 125.76 203.29 125.76C203.29 125.76 203.25 125.11 203.4 125.05C203.54 124.99 203.71 125.08 203.76 125.2C203.82 125.31 203.8 125.57 203.85 125.69C203.91 125.8 204.24 125.94 204.38 125.93C204.53 125.92 204.37 124 204.37 124C204.37 124 204.29 123.45 204.25 123.27C204.22 123.12 204.08 122.67 204.08 122.67C204.08 122.67 203.92 122.02 204.12 121.97C204.23 121.94 204.53 122.47 204.74 123.03C204.96 123.63 205.08 124.27 205.15 124.26C205.3 124.24 205.22 123.18 205.22 123.18C205.22 123.18 205.07 122.7 205.07 122.47C204.93 122.19 204.84 121.67 205.09 121.63C205.13 121.62 205.46 122.28 205.46 122.28C205.46 122.28 205.58 122.75 205.66 122.96C205.79 123.35 205.81 123.95 205.88 124.22C205.94 124.44 205.99 124.35 206.01 124.36C206.03 124.36 206 124.06 205.96 123.64C205.94 123.42 205.97 123.18 205.91 122.94C205.85 122.72 205.82 122.4 205.81 122.2C205.77 121.66 206.11 121.71 206.23 122.21C206.27 122.4 206.32 122.61 206.37 122.82C206.55 123.64 206.54 124.43 206.63 124.44C206.75 124.44 206.67 123.01 206.67 123.01C206.67 123.01 206.84 122.21 207.02 122.95C207.22 123.81 207.2 124.51 207.2 124.54C207.18 124.75 207.32 125.49 207.15 126.22Z" />
	<path id="Layer" class="shp7" d="M200.79 187.45C200.79 187.45 202.08 189.07 202.4 189.27C202.72 189.47 202.25 191.81 201.38 191.96C200.89 192.05 200.61 191.5 200.61 191.5L200.75 190.83L198.91 188.91L200.79 187.45Z" />
	<path id="Layer" class="shp7" d="M194.14 187.85C194.14 187.85 195.22 189.62 195.51 189.86C195.8 190.1 195.04 192.36 194.16 192.4C193.66 192.43 193.46 191.85 193.46 191.85L193.68 191.19L192.1 189.06L194.14 187.85Z" />
	<path id="Layer" class="shp4" d="M195.44 189.79C195.44 189.79 194.83 190.58 194.49 190.9C194.06 191.31 193.5 191.71 193.5 191.71C193.5 191.71 192.87 192.86 192.69 193.26C192.31 194.16 191.88 195.16 191.94 195.67C191.96 195.83 192.32 196 192.62 195.91C193.87 195.52 197.05 192.58 197.46 191.79C197.92 190.88 195.44 189.79 195.44 189.79Z" />
	<path id="Layer" class="shp10" d="M186.35 162.88C186.47 162.55 186.58 162.25 186.69 161.96C188.01 162.25 189.51 162.57 191.05 162.91L191.24 168.6C191.23 168.16 190.08 177.69 190.08 177.69C190.08 177.69 193.07 184.37 195.12 188.27C194.28 189.32 193.88 189.67 192.67 190.39C189.49 186.54 185.33 179.51 185.16 178.34C185.06 177.67 184.97 166.8 186.35 162.88Z" />
	<path id="Layer" class="shp17" d="M198.18 164.52C197.77 168.96 196.87 177.44 196.95 178.13C197.18 178.98 201.18 186.83 201.9 187.97C201.33 188.84 200.44 189.78 199.49 190.04C199.3 190.09 192.69 180.6 192.33 179.85C191.93 179 191.25 174.35 191.23 168.6L191.05 162.91C193.61 163.46 195.97 164 198.18 164.52Z" />
	<path id="Layer" class="shp2" d="M189.75 144.29L192.78 144.71C192.78 144.71 195.19 144.75 195.49 144.75C195.79 144.75 197.69 155.89 198.24 160.07C198.79 164.25 198.36 164.99 198.36 164.99C198.36 164.99 194.54 165.86 191.7 165.61C188.76 165.35 185.44 163.74 185.44 163.74C185.44 163.74 187.96 155.7 188.46 153.19C188.96 150.68 189.75 144.29 189.75 144.29Z" />
	<path id="Layer" class="shp6" d="M182.43 130.82C182.43 130.82 182.24 139.11 182.55 139.75C183 140.67 188.07 147.21 188.07 147.21C188.07 147.21 185.65 157.44 184.63 160.97C184.53 161.33 184.07 163.63 184.07 163.85C184.07 164.35 186.21 164.98 186.47 164.94C186.7 164.91 188.57 155.17 189.76 150.41C190.16 148.8 190.86 147.27 191.81 145.91L192.64 144.72L186.27 138.28C186.27 138.28 185.48 131.11 185.48 130.51C185.48 130.35 182.74 130.24 182.43 130.82Z" />
	<path id="Layer" class="shp6" d="M195.39 144.75L203.33 136.59C203.33 136.59 204.44 128.86 204.52 128.57C204.59 128.28 206.57 128.13 207.36 128.05C207.62 128.03 207.23 136.28 206.85 137.66C206.4 139.29 200.39 146.74 200.39 146.74C200.39 146.74 199.32 150.77 199.58 153.73C200.01 158.65 201.17 165.41 200.96 165.62C199.67 166.44 194.71 166.53 194.4 166.01C190.94 160.39 195.39 144.75 195.39 144.75Z" />
	<path id="Layer" class="shp4" d="M202.32 189.21C202.32 189.21 201.81 190.07 201.52 190.43C201.14 190.89 200.64 191.36 200.64 191.36C200.64 191.36 200.16 192.59 200.04 193.01C199.77 193.95 199.47 195.08 199.59 195.57C199.63 195.73 199.98 196.03 200.26 195.85C201.35 195.13 204.27 191.77 204.57 190.93C204.92 189.97 202.32 189.21 202.32 189.21Z" />
	<path id="Layer" class="shp18" d="M193 134.11C193.34 134.12 193.67 134.12 194.01 134.09C194.39 134.06 194.88 134.03 195.16 134.09C195.74 134.22 196.68 134.64 196.99 135.41C197.38 136.38 198.76 136.24 197.12 139.91C195.26 144.07 193.09 142.71 193.06 142.61C193.03 142.52 191.99 139.09 191.99 139.09C191.99 139.09 190.69 140.39 190.71 140.33C190.73 140.28 188.94 133.96 193 134.11Z" />
	<path id="Layer" class="shp7" d="M192.81 143.2L192.6 144.82C192.6 144.82 192.11 147.17 192.74 147.62C193.36 148.07 195.39 144.76 195.39 144.76L195.18 140.64L192.81 143.2Z" />
	<path id="Layer" class="shp8" d="M195.25 141.97C194.73 143.38 193.5 144.24 192.63 144.58L192.81 143.2L195.18 140.64L195.25 141.97Z" />
	<path id="Layer" class="shp7" d="M194.47 135.98C193.31 135.31 191.82 135.89 191.39 137.15C191.2 137.7 190.99 138.39 190.83 139.16C190.44 141.02 191.05 143.02 191.88 143.18C192.72 143.34 195.26 142.58 195.85 139.95C196.21 138.32 195.69 136.68 194.47 135.98Z" />
	<path id="Layer" class="shp7" d="M195.19 140.04C195.12 140.45 195.32 140.84 195.66 140.9C195.99 140.97 196.32 140.68 196.4 140.27C196.48 139.86 196.27 139.47 195.94 139.41C195.61 139.35 195.27 139.63 195.19 140.04Z" />
	<path id="Layer" class="shp18" d="M195.94 139.41C195.94 139.41 194.9 139.29 194.78 138.54C194.66 137.79 193.89 135.98 192.09 135.92C190.28 135.86 194 135.12 194.13 135.16C194.25 135.21 195.79 135.79 195.79 135.79C195.79 135.79 196.61 137.22 196.61 137.35C196.62 137.47 196.52 138.78 196.52 138.78L195.94 139.41Z" />
	<path id="Layer" class="shp9" d="M193.24 141.32L191.39 140.99C191.39 140.99 191.31 141.71 192.12 141.88C193.11 142.08 193.24 141.32 193.24 141.32Z" />
	<path id="Layer" class="shp16" d="M99.63 148.93C99.7 149.17 99.74 149.25 99.83 149.41C100.4 150.47 101.73 151.97 101.73 151.97L102.75 149.63C102.75 149.63 102.59 148.9 102.3 147.85C101.3 148.11 100.36 148.26 99.63 148.93Z" />
	<path id="Layer" class="shp4" d="M105.52 146.9C105.52 146.9 99.79 149.39 99.6 149.34C99.48 149.31 97.25 145.54 97.22 142C97.21 140.36 98.9 138.39 100.78 138.78C101.73 138.97 101.71 139.24 103.11 141.29C104.51 143.35 105.52 146.9 105.52 146.9Z" />
	<path id="Layer" class="shp7" d="M110.41 191.57C110.41 191.57 110.28 193.84 110.28 193.85C110.23 194.14 110.03 194.85 110.03 195.11C110.03 196.1 114.67 194.27 113.63 193.84C113.53 193.8 113.04 193.5 113.01 193.16C112.96 192.65 112.84 191.6 112.84 191.6L110.41 191.57Z" />
	<path id="Layer" class="shp19" d="M113.62 193.83C113.62 193.83 112.53 194.13 111.97 194.21C111.41 194.28 110.68 193.65 110.28 193.82C109.85 194 109.86 195.7 109.86 195.7C109.86 195.7 115.7 196.19 117.34 195.69C118 195.49 115.84 194.53 113.62 193.83Z" />
	<path id="Layer" class="shp7" d="M100.93 191.57C100.93 191.57 100.79 193.84 100.79 193.85C100.74 194.14 100.55 194.85 100.55 195.11C100.55 196.1 105.18 194.27 104.14 193.84C104.05 193.8 103.41 193.28 103.38 192.94C103.33 192.42 103.36 191.6 103.36 191.6L100.93 191.57Z" />
	<path id="Layer" class="shp19" d="M104.13 193.83C104.13 193.83 103.04 194.13 102.49 194.21C101.93 194.28 101.19 193.65 100.8 193.82C100.36 194 100.35 195.7 100.35 195.7C100.35 195.7 106.21 196.27 107.86 195.69C108.5 195.46 106.36 194.53 104.13 193.83Z" />
	<path id="Layer" class="shp7" d="M102.35 150.19L106.43 144.41C106.45 144.36 106.48 144.26 106.54 144.1C106.75 143.53 107.17 142.34 107.55 141.15L107.55 141.14C107.67 140.73 107.92 140 108.16 139.3C108.42 138.53 108.75 137.56 108.77 137.4C108.76 137.37 108.74 137.32 108.71 137.25C108.56 136.86 108.36 135.92 108.29 135.52C108.24 135.26 108.2 134.63 108.5 134.63C108.98 134.63 108.75 135.26 108.97 135.65C109.05 135.39 109.22 134.87 109.31 134.34L109.39 133.11C109.4 133.02 109.3 132.34 109.64 132.34L109.65 132.34C109.96 132.37 109.95 133.09 110.08 134.3C110.11 134.16 110.15 134 110.19 133.84C110.18 133.76 110.24 133.39 110.29 133.2C110.23 132.86 110.26 132.32 110.62 132.37C110.8 132.4 110.78 133.15 110.78 133.15C110.78 133.25 110.77 134.04 110.78 134.19C110.81 133.93 110.96 132.8 111.24 132.8C111.47 132.8 111.49 133.1 111.48 133.34C111.48 133.49 111.34 134.71 111.33 134.85C111.44 134.67 111.57 133.59 111.68 133.59C112.13 133.59 111.97 135.12 111.8 135.52C111.78 135.56 111.77 135.64 111.75 135.74C111.69 136.01 111.6 136.47 111.36 136.88C111.07 137.37 110.68 138.15 110.62 138.27C110.58 138.52 110.44 139.4 110.27 140.5C110.19 140.97 110.11 141.49 110.03 142.03L110.03 142.03C110.01 142.15 109.92 142.52 109.6 143.9C109.16 145.8 109.11 145.88 109.09 145.92C108.9 146.26 104.5 152.29 104.31 152.55L104.2 152.7L102.35 150.19Z" />
	<path id="Layer" class="shp8" d="M109.94 136.72C109.94 136.72 109.61 135.87 109.02 135.87C109.02 135.87 109.35 135.75 109.63 135.97C109.92 136.2 109.94 136.72 109.94 136.72Z" />
	<path id="Layer" class="shp7" d="M101.36 135.07L100.84 138.43C100.84 138.43 102.84 140.05 104.01 139.71C104.99 139.42 104.31 138.13 104.31 138.13C104.31 138.13 103.79 136.34 103.95 135.4C104.11 134.46 101.36 135.07 101.36 135.07Z" />
	<path id="Layer" class="shp20" d="M101.74 136.09C102.24 136.32 103.23 136.65 104 136.73C103.93 136.26 103.89 135.76 103.95 135.4C104.03 134.96 103.48 134.86 102.87 134.88C102.07 134.95 101.36 135.07 101.36 135.07L101.26 135.72C101.41 135.88 101.57 136.01 101.74 136.09Z" />
	<path id="Layer" class="shp7" d="M98.83 131.2C98.75 131.2 99.63 134.95 100.98 135.59C102.33 136.24 104.35 135.9 104.73 134.89C105.15 133.78 103.62 129.95 101.72 129.47C99.81 128.98 98.83 131.2 98.83 131.2Z" />
	<path id="Layer" class="shp4" d="M100.4 127.76C99.32 128.39 98.82 129.32 98.66 129.7C98.15 129.95 97.53 130.47 97.24 131.89C96.88 133.63 98.17 134.97 99.53 135.37C100.9 135.78 101.11 136.69 101.11 136.69L101.26 135.71C101.26 135.71 100.96 134.85 100.5 134.43C100.05 134 100.72 133.38 100.78 132.87C100.82 132.48 100.54 131.72 100.6 131.07C100.6 131.07 101.36 129.91 102.11 129.63C103.38 129.14 101.78 126.95 100.4 127.76Z" />
	<path id="Layer" class="shp7" d="M100.97 133.52C101.15 133.95 101.08 134.38 100.81 134.48C100.55 134.58 100.19 134.3 100.01 133.87C99.83 133.44 99.91 133.01 100.17 132.91C100.44 132.81 100.8 133.09 100.97 133.52Z" />
	<path id="Layer" class="shp16" d="M106.01 150.28L113.89 148.98C113.89 148.98 112.99 146.71 112.67 146.71C112.35 146.71 106.72 149.19 106.72 149.19L106.27 150.1L106.01 150.28Z" />
	<path id="Layer" class="shp11" d="M101.98 155.73C101.98 155.73 101.19 159.56 101.52 162.47C101.83 165.38 101.86 175.7 101.86 175.7L100.64 192.22L103.54 192.28C103.54 192.28 106.98 175.77 106.91 176.2C106.85 176.62 108.06 164.57 108.06 164.57L103.97 155.37L101.98 155.73Z" />
	<path id="Layer" class="shp4" d="M102.75 155.55C102.75 155.55 102.23 159 102.88 160.51C103.52 162.03 108.37 176.88 108.43 178.09C108.5 179.3 110.11 192.69 110.11 192.69L113.48 192.59L114.21 177.71L112.68 159L111.2 154.28L102.75 155.55Z" />
	<path id="Layer" class="shp7" d="M100.84 138.43C100.84 138.43 101.67 138.98 102.44 138.91C103.22 138.85 104.31 138.13 104.31 138.13L104.16 137.6C104.16 137.6 102.16 137.31 102.11 137.34C102.05 137.37 100.84 138.43 100.84 138.43Z" />
	<path id="Layer" class="shp16" d="M109.69 146.59C109.69 146.59 112.67 149.43 114.02 148.95C115.36 148.46 115.92 146.81 112.64 144.38C109.7 142.22 109.69 146.59 109.69 146.59Z" />
	<path id="Layer" class="shp2" d="M111.71 150.1C111.27 147.67 108.06 140.11 107.81 138.72C107.68 138.04 105.95 138.02 104.3 138.11C102.56 138.2 100.83 138.43 100.83 138.43C100.83 138.43 99.29 138.68 98.62 139.32C97.94 139.96 97.76 141.74 98.73 145.1C99.5 147.76 100.45 149.22 100.93 151.15C101.02 151.8 101.11 152.44 101.21 153.19C101.39 156.09 101.21 159.91 101.21 159.91C101.21 159.91 109.6 161.66 112.74 159C112.74 159 112.17 152.59 111.71 150.1Z" />
	<path id="Layer" class="shp21" d="M113.85 144.87C113.85 144.87 110.56 147.62 110.37 147.62C110.25 147.62 105.67 144.22 104.62 141.43C104.03 139.89 105.26 138.16 106.66 138.17C107.62 138.17 108.06 138.43 109.98 140.06C111.9 141.69 113.85 144.87 113.85 144.87Z" />
	<path id="Layer" fill-rule="evenodd" class="shp22" d="M128.3 85.37L125.98 89.72C125.77 89.86 125.55 89.76 124.99 89.52C124 89.09 123.01 88.66 122.01 88.26C121.85 88.2 121.57 88.26 121.43 88.38C120.61 89.04 119.83 89.76 119 90.42C118.74 90.62 118.64 90.77 118.72 91.11C119.02 92.46 119.29 93.82 119.57 95.17C118.5 95.84 115.55 96.77 114.46 96.77C113.97 95.55 113.44 94.3 112.97 93.04C112.82 92.64 112.66 92.53 112.22 92.52C111.2 92.5 110.18 92.38 109.17 92.24C108.76 92.19 108.5 92.2 108.26 92.6C107.63 93.63 106.93 94.62 106.28 95.64C106.11 95.92 105.93 96.01 105.64 95.86C104.28 95.14 102.92 94.41 101.57 93.69C101.23 93.51 101.41 93.26 101.49 93.05C101.93 91.95 102.36 90.86 102.83 89.78C103.01 89.38 102.96 89.14 102.65 88.81C101.85 87.94 101.1 87.03 100.27 86.06C98.94 86.34 97.47 86.64 95.96 86.95C95.16 85.34 94.67 83.64 94.43 81.81C95.82 81.23 97.2 80.66 98.42 80.15C98.59 78.74 98.71 77.44 98.91 76.14C98.96 75.77 98.88 75.61 98.59 75.42C97.59 74.78 96.62 74.1 95.62 73.45C95.41 73.31 95.27 73.19 95.37 72.9C95.89 71.45 96.53 70.07 97.46 68.83C97.66 68.55 97.84 68.54 98.12 68.66C99.25 69.13 100.38 69.58 101.51 70.06C101.78 70.18 101.94 70.17 102.2 69.95C103.08 69.19 103.99 68.47 104.92 67.76C105.15 67.58 105.17 67.44 105.12 67.19C104.84 65.83 104.57 64.47 104.3 63.07C105.9 62.3 107.54 61.73 109.32 61.49C109.91 62.92 110.48 64.33 111.04 65.69C112.5 65.82 113.91 65.96 115.42 66.1C116.01 65.21 116.68 64.19 117.36 63.17C117.92 62.34 117.73 62.33 118.72 62.74C118.81 62.78 118.92 62.78 119.02 62.81C119.83 63.24 120.64 63.68 121.45 64.12C121.61 64.25 121.76 64.41 121.94 64.51C122.41 64.75 122.53 65.04 122.29 65.57C121.79 66.67 121.36 67.8 120.92 68.93C120.87 69.08 120.91 69.33 121.01 69.46C121.64 70.29 122.35 71.06 122.94 71.92C123.23 72.34 123.48 72.39 123.92 72.29C125.2 72 126.48 71.77 127.89 71.49C128.42 73.21 128.94 74.88 129.46 76.58C129.16 76.71 128.98 76.79 128.8 76.86C127.71 77.32 126.62 77.78 125.52 78.22C125.2 78.34 125.13 78.51 125.1 78.84C125 79.97 124.83 81.1 124.73 82.23C124.71 82.41 124.84 82.67 124.99 82.77C125.78 83.34 126.61 83.86 127.41 84.4C128.06 84.85 128.3 85.01 128.3 85.37ZM115.57 72.06C111.72 69.97 106.92 71.42 104.85 75.31C102.78 79.2 104.22 84.04 108.07 86.13C111.93 88.22 116.73 86.77 118.8 82.88C120.87 78.99 119.43 74.15 115.57 72.06Z" />
	<path id="Layer" fill-rule="evenodd" class="shp23" d="M88.85 103.25L90.14 109.78C90.04 110.11 89.73 110.2 88.95 110.43C87.55 110.84 86.16 111.25 84.78 111.7C84.56 111.78 84.32 112.08 84.28 112.32C83.99 113.72 83.78 115.14 83.48 116.55C83.39 116.98 83.41 117.22 83.78 117.5C85.25 118.64 86.69 119.83 88.12 120.98C87.58 122.6 85.31 126.14 84.18 127.08C82.62 126.23 81.02 125.39 79.45 124.49C78.96 124.21 78.7 124.23 78.23 124.6C77.16 125.46 76 126.22 74.84 126.95C74.36 127.25 74.11 127.49 74.19 128.11C74.41 129.73 74.53 131.36 74.73 132.98C74.78 133.42 74.67 133.68 74.24 133.77C72.22 134.19 70.2 134.62 68.17 135.04C67.68 135.15 67.64 134.74 67.55 134.44C67.07 132.93 66.59 131.42 66.17 129.89C66.01 129.32 65.74 129.11 65.15 129.03C63.58 128.83 62.02 128.53 60.34 128.24C59.19 129.68 57.93 131.27 56.62 132.9C54.41 131.92 52.46 130.58 50.66 128.88C51.61 127.09 52.56 125.29 53.39 123.71C52.37 122.11 51.38 120.64 50.49 119.13C50.23 118.69 50 118.6 49.55 118.66C47.96 118.85 46.37 119 44.79 119.18C44.45 119.22 44.2 119.21 44.06 118.82C43.37 116.87 42.85 114.88 42.76 112.79C42.74 112.33 42.92 112.16 43.31 112.04C44.88 111.56 46.44 111.04 48.01 110.56C48.39 110.45 48.56 110.31 48.64 109.86C48.9 108.3 49.23 106.76 49.6 105.22C49.69 104.83 49.58 104.67 49.32 104.46C47.88 103.28 46.44 102.1 44.96 100.89C45.98 98.7 47.2 96.69 48.84 94.9C50.65 95.87 52.46 96.84 54.18 97.77C55.82 96.65 57.4 95.56 59.09 94.4C58.95 92.97 58.77 91.33 58.61 89.68C58.49 88.33 58.28 88.49 59.66 88.06C59.79 88.02 59.9 87.93 60.03 87.86C61.24 87.62 62.45 87.37 63.67 87.13C63.95 87.12 64.24 87.16 64.5 87.1C65.2 86.95 65.57 87.14 65.77 87.9C66.18 89.48 66.7 91.02 67.21 92.57C67.28 92.78 67.54 93.01 67.75 93.05C69.11 93.36 70.51 93.55 71.85 93.93C72.51 94.12 72.81 93.96 73.19 93.47C74.26 92.07 75.4 90.71 76.62 89.19C78.63 90.52 80.59 91.81 82.58 93.12C82.37 93.52 82.26 93.76 82.14 93.99C81.39 95.41 80.65 96.84 79.88 98.24C79.66 98.64 79.73 98.88 79.98 99.25C80.84 100.51 81.62 101.82 82.47 103.08C82.6 103.28 82.96 103.44 83.2 103.42C84.5 103.32 85.8 103.15 87.11 103.02C88.16 102.92 88.55 102.88 88.85 103.25ZM64.32 100.45C58.54 101.62 54.79 107.29 55.95 113.12C57.1 118.95 62.72 122.73 68.5 121.56C74.28 120.4 78.02 114.73 76.87 108.9C75.71 103.07 70.09 99.29 64.32 100.45Z" />
	<path id="Layer" fill-rule="evenodd" class="shp24" d="M85 69.61L84.02 72.38C83.91 72.48 83.77 72.44 83.43 72.35C82.81 72.18 82.19 72.02 81.56 71.88C81.46 71.85 81.3 71.92 81.23 71.99C80.81 72.46 80.41 72.95 79.98 73.41C79.85 73.56 79.8 73.65 79.88 73.84C80.18 74.61 80.46 75.39 80.74 76.16C80.17 76.65 78.51 77.46 77.88 77.56C77.48 76.88 77.06 76.2 76.67 75.5C76.54 75.28 76.44 75.23 76.18 75.26C75.58 75.34 74.97 75.36 74.37 75.37C74.12 75.38 73.97 75.41 73.86 75.66C73.58 76.33 73.26 76.97 72.97 77.63C72.89 77.81 72.79 77.88 72.61 77.82C71.75 77.52 70.89 77.21 70.02 76.91C69.81 76.83 69.89 76.67 69.92 76.54C70.08 75.86 70.24 75.17 70.42 74.5C70.49 74.25 70.44 74.11 70.23 73.94C69.68 73.5 69.16 73.03 68.59 72.54C67.83 72.82 66.99 73.13 66.13 73.45C65.52 72.57 65.08 71.62 64.78 70.56C65.54 70.1 66.3 69.64 66.98 69.23C66.95 68.39 66.91 67.61 66.91 66.83C66.91 66.61 66.84 66.52 66.66 66.44C66.02 66.15 65.38 65.84 64.74 65.55C64.6 65.48 64.51 65.42 64.54 65.24C64.72 64.34 64.97 63.47 65.41 62.66C65.51 62.48 65.61 62.46 65.79 62.5C66.49 62.68 67.2 62.84 67.9 63.02C68.07 63.07 68.17 63.05 68.3 62.9C68.74 62.37 69.22 61.86 69.7 61.36C69.83 61.24 69.82 61.15 69.77 61.01C69.49 60.23 69.21 59.46 68.92 58.66C69.8 58.06 70.71 57.58 71.74 57.28C72.21 58.06 72.67 58.84 73.12 59.59C73.99 59.54 74.83 59.49 75.73 59.44C76 58.87 76.3 58.2 76.61 57.55C76.87 57.01 76.75 57.02 77.37 57.17C77.43 57.18 77.49 57.18 77.56 57.18C78.07 57.36 78.59 57.55 79.1 57.74C79.21 57.8 79.31 57.88 79.42 57.92C79.72 58.02 79.81 58.18 79.72 58.51C79.52 59.2 79.37 59.91 79.22 60.61C79.19 60.7 79.24 60.85 79.31 60.91C79.76 61.34 80.24 61.74 80.67 62.19C80.87 62.41 81.02 62.42 81.28 62.32C82 62.03 82.74 61.78 83.54 61.49C84 62.45 84.45 63.39 84.91 64.34C84.74 64.44 84.65 64.51 84.55 64.57C83.94 64.93 83.34 65.3 82.74 65.66C82.56 65.76 82.53 65.87 82.55 66.06C82.59 66.74 82.59 67.41 82.63 68.09C82.63 68.19 82.73 68.34 82.83 68.38C83.34 68.64 83.87 68.87 84.4 69.12C84.82 69.33 84.97 69.4 85 69.61ZM76.35 62.93C73.9 62.05 71.2 63.34 70.33 65.81C69.45 68.28 70.73 71 73.18 71.88C75.63 72.76 78.33 71.47 79.2 69C80.07 66.53 78.8 63.81 76.35 62.93Z" />
	<path id="Layer" class="shp2" d="M76.11 194.96L74.56 194.95C74.76 188.13 74.94 177.76 74.6 177.18C74.6 177.19 74.62 177.22 74.7 177.26L75.96 176.93C76.16 177.03 76.29 177.1 76.33 180C76.35 181.49 76.34 183.56 76.3 186.13C76.24 190.51 76.11 194.92 76.11 194.96Z" />
	<path id="Layer" class="shp2" d="M80.65 194.88L70.19 194.88C69.71 194.88 69.32 195.27 69.32 195.76C69.32 195.84 69.39 195.91 69.47 195.91L81.37 195.91C81.45 195.91 81.52 195.84 81.52 195.76C81.52 195.27 81.13 194.88 80.65 194.88Z" />
	<path id="Layer" class="shp2" d="M75.94 194.01L74.66 194.01C74.28 194.01 73.97 194.32 73.97 194.7C73.97 195.09 74.28 195.39 74.66 195.39L75.94 195.39C76.32 195.39 76.62 195.08 76.62 194.7C76.62 194.32 76.32 194.01 75.94 194.01Z" />
	<path id="Layer" class="shp4" d="M38.86 164.78L38.24 164.78L38.24 195.89L38.86 195.89L38.86 164.78Z" />
	<path id="Layer" class="shp4" d="M70.05 147.57C69.99 146.18 70.19 144.82 70.81 143.53C71.33 142.42 72.64 141.8 73.83 141.79C77.61 141.79 78.09 146.83 80.49 148.77C81.23 149.37 82.05 149.85 82.74 150.49C85.31 152.85 84.16 157.23 81.8 159.31C80.16 160.74 77.59 161.56 75.57 160.44C74.52 159.85 73.72 158.87 73.15 157.8C72.34 156.29 71.82 154.54 71.25 152.92C70.63 151.2 70.12 149.41 70.05 147.57Z" />
	<path id="Layer" class="shp3" d="M59.62 162.06L67.85 159.74C67.85 159.74 69.58 157.39 71.81 154.24C72.54 154.97 72.94 156.09 73.68 156.81L68.23 162.88C68.04 163.1 67.76 163.23 67.46 163.23L59.91 163.26L57.32 163.47L57.32 161.79L59.62 162.06Z" />
	<path id="Layer" class="shp25" d="M71.46 160.29C71.46 160.29 74.28 157.37 75.01 156.1C75.74 154.84 74.51 155.66 73.27 155.33C72.8 155.2 72.91 152.41 72.02 153.32C70.56 154.81 68.72 157.41 68.72 157.41L71.46 160.29Z" />
	<path id="Layer" class="shp17" d="M75.47 152.03C75.47 152.03 78.01 151.53 79.16 152.5C80.32 153.48 78.91 162.14 78.91 163.58C78.92 165.02 79.71 169.07 79.71 169.07C79.71 169.07 72.03 170.43 70.81 168.27C70.81 168.27 70.47 160.06 70.52 159.03C70.57 157.99 71.71 153.77 72.02 153.31C72.34 152.86 75.47 152.03 75.47 152.03Z" />
	<path id="Layer" class="shp7" d="M75.49 148.08C75.49 148.08 75.5 148.16 75.53 148.29C75.64 148.91 76.08 150.98 76.38 151.55C76.74 152.24 75.15 154.43 73.61 154.16C73.15 154.08 73.99 152.15 73.95 151.94C73.88 151.55 73.77 151.02 73.66 150.47C73.6 150.16 73.54 149.84 73.48 149.55C73.32 148.71 73.18 148.02 73.18 148.02L75.49 148.08Z" />
	<path id="Layer" class="shp8" d="M75.53 148.29C75.5 148.16 75.49 148.08 75.49 148.08L73.18 148.02C73.18 148.02 73.32 148.71 73.48 149.55C73.54 149.84 73.6 150.15 73.66 150.46C74.02 150.41 74.39 150.23 74.76 149.91C75.17 149.55 75.44 149.12 75.6 148.66C75.57 148.51 75.54 148.38 75.53 148.29Z" />
	<path id="Layer" class="shp7" d="M73.94 142.81C73.94 142.81 75.02 142.68 75.71 143.57C76.39 144.46 77.12 147.2 75.43 148.69C73.74 150.18 72.07 148.49 71.82 146.7C71.57 144.91 71.47 142.74 73.94 142.81Z" />
	<path id="Layer" class="shp7" d="M71.32 146.68C71.52 147.07 71.86 147.29 72.07 147.16C72.29 147.04 72.3 146.62 72.1 146.22C71.9 145.83 71.56 145.61 71.34 145.73C71.13 145.86 71.12 146.28 71.32 146.68Z" />
	<path id="Layer" class="shp4" d="M73.82 142.51C73.82 142.51 75.27 145.12 76.31 145.24C77.34 145.36 77.48 146.75 77.48 146.75C77.48 146.75 77.11 143.56 76.08 142.94C75.05 142.32 73.82 142.51 73.82 142.51Z" />
	<path id="Layer" class="shp7" d="M76.03 145.9C75.95 146.36 76.12 146.78 76.41 146.84C76.71 146.91 77.01 146.58 77.1 146.12C77.18 145.65 77.01 145.23 76.72 145.17C76.43 145.11 76.12 145.43 76.03 145.9Z" />
	<path id="Layer" class="shp3" d="M66.27 188.84C66.27 188.84 68.6 191.66 68.61 191.91C68.63 192.16 68.52 194.83 68.25 195.08C67.97 195.32 67.15 195.5 67.42 195.77C67.61 195.98 69.14 195.94 70.14 195.88C70.44 195.86 70.81 193.49 70.92 193.15C71.09 192.64 71.51 191.5 71.35 191.15C71.28 190.97 70.92 190.62 70.41 190.29C69.88 189.94 67.85 187.09 67.85 187.09L66.27 188.84Z" />
	<path id="Layer" class="shp12" d="M70.38 190.28C70.38 190.28 68.81 194.72 68.2 194.94C68.04 194.99 67.26 195.14 67.11 195.49C67.07 195.59 67.11 195.94 67.11 195.94L70.37 195.94C70.37 195.94 70.78 193.98 70.95 193.12C70.95 193.12 71.81 191.02 71.71 190.83C71.62 190.64 70.38 190.28 70.38 190.28Z" />
	<path id="Layer" class="shp7" d="M52.31 190.2C52.31 190.2 50.41 192.9 50.58 193.76C50.66 194.21 51.06 194.81 50.84 195.25C50.61 195.68 50.34 195.78 50.34 195.78L44.41 195.88C44.09 195.89 44.3 195.68 44.56 195.48C44.99 195.17 45.33 194.96 46.69 194.29C46.78 194.25 47.11 194.04 47.22 193.97C47.52 193.79 47.82 193.5 48.07 193.22C48.5 192.74 50.37 188.84 50.37 188.84L52.31 190.2Z" />
	<path id="Layer" class="shp12" d="M47.22 193.97C48.79 194.38 49.95 194.1 50.6 193.84C50.77 194.32 50.99 194.91 50.88 195.26C50.73 195.68 50.53 195.78 50.34 195.78C48.91 195.82 45.09 195.88 44 195.89C43.85 195.89 43.76 195.71 43.86 195.59C44.13 195.27 47.11 194.04 47.22 193.97Z" />
	<path id="Layer" class="shp12" d="M59.19 173.52C59.19 173.52 61.55 176.23 62.15 176.66C62.75 177.09 68.52 187.81 68.52 187.81L66.46 189.32C66.46 189.32 61.31 182.84 58.89 179.37C56.84 176.44 57.6 176.62 56.39 174.84C55.73 173.85 55.88 172.53 56.75 171.73C56.86 171.63 56.98 171.53 57.11 171.42C58.89 169.92 71.1 168.23 71.1 168.23L78.91 169.01C78.91 169.01 72.53 173.52 72.29 173.64C72.06 173.76 63.48 175.03 63.3 175.03C63.12 175.02 59.19 173.52 59.19 173.52Z" />
	<path id="Layer" class="shp8" d="M79.71 169.07C79.71 169.07 81.05 173.13 79.04 175.02C77.03 176.91 65.09 176.71 61.16 176.71C61.16 176.71 59.55 181.15 59.37 181.87C59.19 182.59 51.39 191.91 51.39 191.91L49.25 190.53C49.25 190.53 57.65 174.06 58.3 173.34C58.96 172.62 68.3 169.73 70.63 169.07C72.95 168.41 79.71 169.07 79.71 169.07Z" />
	<path id="Layer" class="shp7" d="M64.17 161.78L71.3 160.19C71.3 160.19 73.88 156.84 76.36 153.96C77.09 154.69 77.49 155.81 78.23 156.53L72.78 162.61C72.59 162.83 72.31 162.95 72.02 162.95L64.46 162.98L61.87 163.19L61.87 161.52L64.17 161.78Z" />
	<path id="Layer" class="shp25" d="M76.01 160.01C76.01 160.01 78.83 157.09 79.56 155.83C80.29 154.56 79.75 152.43 78.5 152.1C77.25 151.76 73.27 157.13 73.27 157.13L76.01 160.01Z" />
	<path id="Layer" class="shp12" d="M49.52 153.59L61.28 153.59C61.59 153.59 61.88 153.78 61.99 154.07L65.61 162.98L72.1 162.98C72.28 162.98 72.43 163.13 72.43 163.31C72.43 163.49 72.28 163.64 72.1 163.64L53.65 163.64C53.14 163.64 52.68 163.34 52.47 162.87L48.82 154.68C48.6 154.16 48.97 153.59 49.52 153.59Z" />
	<path id="Layer" class="shp9" d="M55.86 158.78C55.94 159.18 56.28 159.44 56.63 159.37C56.98 159.3 57.19 158.92 57.11 158.52C57.03 158.12 56.69 157.85 56.34 157.92C55.99 157.99 55.78 158.37 55.86 158.78Z" />
	<path id="Layer" class="shp11" d="M73.34 165.14L38.21 165.14C37.79 165.14 37.46 164.81 37.46 164.39C37.46 163.98 37.79 163.64 38.21 163.64L73.34 163.64C73.75 163.64 74.08 163.98 74.08 164.39C74.08 164.81 73.75 165.14 73.34 165.14Z" />
	<path id="Layer" class="shp9" d="M73.28 147.7L74.88 147.62C74.88 147.62 74.87 148.23 74.17 148.29C73.32 148.36 73.28 147.7 73.28 147.7Z" />
	<path id="Layer" class="shp2" d="M68.3 177.12L69.02 174.1C69.52 171.99 71.38 170.45 73.53 170.36L82.64 169.99L82.92 169.05L73.49 169.44C70.93 169.54 68.73 171.37 68.13 173.88L67.37 177.1C67.62 177.11 67.94 177.12 68.3 177.12Z" />
	<path id="Layer" class="shp11" d="M80.52 175.51C80.52 175.51 68 175.73 66.7 175.51C65.39 175.3 64.83 176.95 65.22 177.81C65.61 178.68 66.68 179.01 68.26 179.09C69.83 179.17 82.96 179.54 83.33 179.19C83.64 178.9 87.62 165.17 89.06 160.14C89.35 159.14 88.78 158.09 87.79 157.8C86.8 157.5 85.76 158.07 85.46 159.07L80.52 175.51Z" />
	<path id="Layer" class="shp4" d="M73.34 164.78L72.72 164.78L72.72 195.89L73.34 195.89L73.34 164.78Z" />
	<path id="Layer" class="shp4" d="M73.18 166.79L38.24 166.79L38.24 167.13L73.18 167.13L73.18 166.79Z" />
	<path id="Layer" class="shp26" d="M166.37 15.08C166.37 15.08 170.91 18.05 182.09 17.64C182.09 17.64 170.1 22.21 165.41 22.92L163.48 15.23L166.37 15.08Z" />
	<path id="Layer" class="shp12" d="M168.51 18.95C168.51 18.95 167.59 21.12 165.41 22.92L164.41 18.91L164.47 16.97L168.51 18.95Z" />
	<path id="Layer" class="shp8" d="M151.25 10.69C151.25 10.69 164.36 9.8 166.4 10.55L168.51 18.95C168.51 18.95 161.04 18.31 153.78 20.75L151.25 10.69Z" />
	<path id="Layer" class="shp3" d="M143.36 104.31C143.36 104.31 142.72 105.34 142.78 105.65C142.84 105.96 143.6 109.22 144.02 109.44C144.44 109.65 145.5 109.61 145.26 110.04C145.08 110.36 143.18 110.78 141.92 111.03C141.55 111.1 140.36 108.29 140.11 107.9C139.74 107.33 138.88 106.05 138.96 105.56C139 105.33 139.33 104.78 139.86 104.21C140.41 103.61 140.79 102.5 140.79 102.5L143.36 104.31Z" />
	<path id="Layer" class="shp7" d="M152.53 104.01C152.53 104.01 152.31 106.34 152.31 106.34C152.34 106.7 152.33 107.59 152.41 107.9C152.7 109.06 157.34 105.59 156.05 105.38C155.93 105.36 155.51 105.07 155.38 104.69C155.17 104.09 155.47 103.21 155.47 103.21L152.53 104.01Z" />
	<path id="Layer" class="shp10" d="M150.65 62.09C150.65 62.09 151.99 65.83 152 65.89C153.56 72.09 157.82 83.9 157.88 85.13C158.03 88.12 155.58 104.19 155.58 104.19L152.19 104.63L152.12 86.16L148.79 79.57L143.09 66.31L150.65 62.09Z" />
	<path id="Layer" class="shp17" d="M140.46 68.3L140.75 72.1L142.81 87.49L140.05 103.76C140.05 103.76 141.49 105.66 142.9 105.61L149.37 87.99L150.91 67.15L149.61 62.94L140.46 68.3Z" />
	<path id="Layer" class="shp4" d="M139.89 104.18C139.89 104.18 143.2 109.18 144.03 109.25C144.25 109.27 145.25 109.2 145.54 109.58C145.63 109.7 145.82 110.28 145.82 110.28L141.66 111.49C141.66 111.49 140.54 108.89 140.07 107.88C140.07 107.88 138.35 105.55 138.41 105.28C138.47 105.02 139.89 104.18 139.89 104.18Z" />
	<path id="Layer" class="shp4" d="M152.21 108.49L152.33 106.32C152.33 106.32 153.71 106.53 154.31 106.28C154.91 106.04 156.03 105.37 156.03 105.37C158.72 105.56 160.86 105.44 160.66 106.2L152.21 108.49Z" />
	<path id="Layer" class="shp3" d="M158.63 49.47L160.43 50.86C160.77 50.59 161.53 49.46 162.01 49.11L160.38 47.3C160.24 47.21 160.17 47.04 160.19 46.87C160.2 46.75 160.21 46.64 160.23 46.6C160.28 46.45 160.33 46.28 160.38 46.14C160.43 46 160.09 45.71 159.91 45.66C159.74 45.61 159.68 46.3 159.6 46.5C159.37 47.12 159.09 48.8 159.04 49.08L158.63 49.47Z" />
	<path id="Layer" class="shp4" d="M160.62 50.68C160.12 50.14 159.41 49.84 158.88 49.27L150.93 54.8C150.93 54.8 144.78 47.46 141.44 50.06C142.91 52.54 144.67 54.92 145.57 56.05C147.62 58.6 150.73 59.82 151.34 59.54C152.02 59.22 160.44 50.9 160.62 50.68Z" />
	<path id="Layer" class="shp16" d="M125.85 32.32C126.11 33.03 126.56 34.14 126.56 34.14C126.58 34.46 126.64 35.79 126.73 37.42L128.96 36.18C128.96 36.18 128.62 33.55 128.71 33.38C128.78 33.23 128.95 33.38 129.54 32.26C129.72 31.93 129.69 31.39 129.69 31.39C129.69 31.39 129.65 30.72 129.5 30.68C129.34 30.64 129.19 30.75 129.15 30.88C129.11 31 129.15 31.26 129.11 31.38C129.07 31.5 128.75 31.68 128.61 31.69C128.46 31.7 128.39 29.74 128.39 29.74C128.39 29.74 128.41 29.17 128.42 28.99C128.44 28.83 128.53 28.36 128.53 28.36C128.53 28.36 128.61 27.69 128.4 27.66C128.28 27.65 128.04 28.21 127.9 28.8C127.75 29.44 127.7 30.1 127.64 30.1C127.48 30.1 127.43 29.02 127.43 29.02C127.43 29.02 127.53 28.51 127.49 28.28C127.6 27.98 127.63 27.45 127.38 27.43C127.33 27.43 127.08 28.14 127.08 28.14C127.08 28.14 127.01 28.62 126.96 28.85C126.88 29.25 126.93 29.87 126.89 30.15C126.86 30.38 126.8 30.29 126.78 30.3C126.76 30.31 126.75 30 126.74 29.57C126.73 29.35 126.68 29.11 126.71 28.86C126.74 28.63 126.73 28.3 126.72 28.1C126.69 27.55 126.36 27.64 126.3 28.16C126.28 28.36 126.25 28.58 126.23 28.8C126.14 29.65 126.25 30.44 126.16 30.46C126.05 30.48 125.95 29.02 125.95 29.02C125.95 29.02 125.67 28.24 125.59 29.01C125.49 29.9 125.59 30.6 125.6 30.63C125.64 30.84 125.58 31.61 125.85 32.32Z" />
	<path id="Layer" class="shp8" d="M141.54 39.08C141.54 39.08 140.19 37.95 139.41 39.62C139.41 39.62 138.62 39.29 138.19 40.1C138.19 40.1 136.8 39.86 136.72 41.92C136.72 41.92 136.02 41.87 136.03 42.71C136.03 43.55 136.52 44.05 136.52 44.05C136.52 44.05 136.16 44.39 136.43 45.12C136.66 45.75 137.2 45.78 137.2 45.78C137.2 45.78 137.47 46.86 137.98 47.13C138.49 47.4 139.11 47.16 139.11 47.16C139.11 47.16 139.35 47.73 139.89 47.61C140.43 47.49 141.04 46.89 141.68 47.05C142.32 47.21 143.88 46.77 143.88 46.77C143.88 46.77 145.56 45.75 144.81 43.98C144.81 43.98 145.64 43.01 144.7 42.08C144.7 42.08 145.11 40.41 143.81 39.61C142.51 38.81 141.54 39.08 141.54 39.08Z" />
	<path id="Layer" class="shp5" d="M145.36 50.66L142.61 49.23C142.61 49.23 140.17 49.59 139.87 49.63C139.57 49.67 139 61.14 138.95 65.43C138.9 69.73 139.42 70.42 139.42 70.42C139.42 70.42 143.4 70.83 146.23 70.22C149.17 69.59 152.33 67.56 152.33 67.56C152.33 67.56 148.81 59.75 148 57.27C147.19 54.8 145.36 50.66 145.36 50.66Z" />
	<path id="Layer" class="shp4" d="M139.98 49.6L130.96 42.33C130.96 42.33 128.91 34.66 128.79 34.38C128.68 34.1 126.67 34.18 125.86 34.2C125.6 34.21 126.99 42.5 127.54 43.85C128.19 45.45 135.16 52.23 135.16 52.23C135.16 52.23 136.74 56.17 136.84 59.19C137 64.21 136.64 71.18 136.88 71.37C138.28 72.04 143.3 71.52 143.55 70.96C146.37 64.85 139.98 49.6 139.98 49.6Z" />
	<path id="Layer" class="shp7" d="M142.38 47.74L142.79 49.34C142.79 49.34 143.55 51.62 142.98 52.14C142.41 52.67 139.98 49.61 139.98 49.61L139.71 45.48L142.38 47.74Z" />
	<path id="Layer" class="shp8" d="M139.8 46.82C140.48 48.16 141.81 48.87 142.72 49.1L142.38 47.74L139.71 45.48L139.8 46.82Z" />
	<path id="Layer" class="shp8" d="M136.05 43.09C136.13 43.72 136.54 44.18 136.97 44.13C137.41 44.08 137.7 43.53 137.62 42.9C137.55 42.27 137.14 41.81 136.7 41.86C136.27 41.92 135.97 42.47 136.05 43.09Z" />
	<path id="Layer" class="shp8" d="M138.12 40.37C138.16 40.73 138.63 40.97 139.16 40.9C139.69 40.84 140.08 40.49 140.04 40.13C139.99 39.78 139.53 39.54 139 39.6C138.47 39.67 138.08 40.01 138.12 40.37Z" />
	<path id="Layer" class="shp7" d="M140.63 40.99C141.85 40.39 143.3 41.08 143.65 42.37C143.8 42.93 143.96 43.64 144.07 44.43C144.33 46.32 143.58 48.28 142.73 48.38C141.88 48.49 139.38 47.55 138.97 44.87C138.72 43.22 139.36 41.61 140.63 40.99Z" />
	<path id="Layer" class="shp7" d="M139.62 45.01C139.67 45.43 139.44 45.8 139.1 45.84C138.76 45.88 138.45 45.58 138.4 45.16C138.35 44.74 138.58 44.37 138.92 44.33C139.26 44.29 139.57 44.59 139.62 45.01Z" />
	<path id="Layer" class="shp8" d="M144.21 39.59C145.18 40.19 145.61 41.22 145.19 41.9C144.76 42.57 143.63 42.64 142.67 42.04C141.7 41.45 141.27 40.41 141.69 39.74C142.12 39.06 143.25 39 144.21 39.59Z" />
	<path id="Layer" class="shp8" d="M141.98 40.45C142.01 40.76 141.68 41.05 141.23 41.1C140.78 41.16 140.38 40.96 140.34 40.65C140.31 40.35 140.64 40.05 141.09 40C141.55 39.94 141.94 40.15 141.98 40.45Z" />
	<path id="Layer" class="shp8" d="M144.69 42.51C144.74 42.9 144.47 43.26 144.08 43.31C143.69 43.35 143.34 43.07 143.3 42.68C143.25 42.28 143.52 41.93 143.91 41.88C144.29 41.83 144.65 42.11 144.69 42.51Z" />
	<path id="Layer" class="shp4" d="M147.65 52.36C147.65 52.36 151.46 61.46 152.81 64.66C152.96 65.01 153.7 67.27 153.73 67.5C153.79 68 151.7 68.9 151.44 68.9C151.2 68.89 148.13 59.29 146.35 54.63C145.75 53.05 144.86 51.59 143.74 50.33L142.87 49.61L142.79 49.34C142.79 49.34 146.66 49.69 147.65 52.36Z" />
	<path id="Layer" class="shp4" d="M151.19 9.03L150.51 9.2L166.04 71.13L166.73 70.95L151.19 9.03Z" />
	<path id="Layer" class="shp7" d="M162.35 48.3C162.32 48.16 162.28 48.02 162.22 47.88C162.16 47.73 162.06 47.55 161.99 47.5C161.94 47.46 161.91 47.36 161.87 47.25C161.85 47.21 161.84 47.18 161.81 47.15C161.81 47.14 161.81 47.14 161.81 47.14C161.75 47.05 161.67 46.98 161.58 46.91C161.49 46.85 161.42 46.77 161.33 46.64C161.25 46.53 161.16 46.44 161.04 46.39C160.93 46.33 160.84 46.33 160.8 46.4C160.61 46.72 159.68 47.76 160.06 48.26C160.38 48.68 160.79 49.12 160.87 49.32C160.99 49.59 161.4 49.57 161.65 49.47C162.11 49.3 162.48 49 162.35 48.3Z" />
	<path id="Layer" class="shp11" d="M215.28 195.65L15.69 195.65L15.69 196.36L215.28 196.36L215.28 195.65Z" />
	<path id="Layer" class="shp8" d="M148.37 36.29C148.4 36.2 148.53 36.19 148.59 36.25C148.69 36.36 148.79 36.46 148.89 36.56C149.11 36.78 149.11 36.8 149.15 36.8C149.23 36.78 149.23 36.64 149.22 36.59C149.21 36.47 149.18 36.35 149.19 36.23C149.22 36 149.43 35.88 149.62 36.04C149.79 36.18 149.96 36.33 150.13 36.49C150.14 36.24 150.15 35.98 150.16 35.73C150.17 35.64 150.26 35.6 150.33 35.65C150.48 35.78 150.94 36.14 151.09 36.26C151.13 36.29 151.29 36.45 151.34 36.42C151.38 36.39 151.38 36.22 151.39 36.18C151.41 35.96 151.42 35.89 151.51 35.18C151.53 35.1 151.65 35.06 151.71 35.12C152.24 35.77 152.32 35.7 152.37 35.9C152.38 35.94 152.35 35.97 152.31 35.97C152.21 35.96 152.18 35.95 151.91 35.68C151.84 35.62 151.78 35.55 151.71 35.48C151.61 36.33 151.61 36.55 151.4 36.62C151.25 36.66 151.22 36.61 150.36 35.93C150.36 36.2 150.35 36.46 150.33 36.73C150.33 36.83 150.22 36.87 150.15 36.81C149.53 36.3 149.53 36.26 149.47 36.23C149.46 36.23 149.47 36.18 149.45 36.25C149.44 36.36 149.54 36.6 149.46 36.81C149.4 36.99 149.2 37.13 149.01 37.03C148.9 36.98 148.87 36.92 148.54 36.6C148.44 36.81 148.32 37 148.17 37.19C148.1 37.28 148.05 37.32 147.95 37.36C147.87 37.39 147.77 37.3 147.8 37.21C147.87 36.97 148.09 36.92 148.37 36.29Z" />
	<path id="Layer" class="shp27" d="M145.52 33.14C145.76 33.18 145.98 33.21 146.23 33.2C146.27 33.2 146.36 33.21 146.39 33.17C146.46 33.05 146.27 32.88 146.19 32.44C146.15 32.25 146.06 31.86 146.31 31.78C146.44 31.74 146.6 31.77 146.74 31.77C146.84 31.78 146.94 31.78 147.04 31.78C146.86 31.06 146.82 31.1 146.89 30.94C146.91 30.9 146.98 30.88 147.01 30.9C147.16 31 147.12 30.98 147.35 31.88C147.38 31.96 147.32 32.06 147.23 32.06C147.09 32.06 146.47 32.01 146.39 32.01C146.39 32.02 146.39 32.05 146.39 32.06C146.39 32.36 146.49 32.61 146.59 32.88C146.68 33.1 146.67 33.4 146.39 33.47C146.24 33.5 145.93 33.48 145.69 33.45C145.81 33.89 145.94 34.32 146.07 34.76C146.09 34.85 146.03 34.97 145.93 34.96C145.65 34.93 145.37 34.91 145.09 34.9C145.17 35.16 145.28 35.4 145.43 35.62C145.54 35.79 145.32 35.99 145.06 35.55C144.92 35.32 144.81 35.06 144.75 34.78C144.72 34.69 144.78 34.58 144.89 34.58C145.16 34.59 145.44 34.61 145.72 34.63C145.59 34.2 145.48 33.76 145.36 33.32C145.33 33.22 145.42 33.13 145.52 33.14Z" />
	<path id="Layer" class="shp28" d="M139.04 30.71C138.96 30.71 138.91 30.66 138.9 30.58C138.84 30.2 138.82 29.82 138.9 29.44C138.94 29.24 139.23 29.31 139.2 29.51C139.16 29.81 139.13 30.13 139.16 30.44C139.38 30.43 139.6 30.4 139.82 30.35C139.91 30.33 140.02 30.39 140.01 30.49C140 30.73 139.91 31.67 139.9 31.67C139.9 31.67 139.91 31.67 139.93 31.67C140.02 31.69 140.35 31.63 140.5 31.63C140.67 31.64 140.73 31.88 140.74 32.02C140.75 32.3 140.54 32.61 140.64 32.89C140.74 33.15 141.15 32.86 141.46 33.08C141.7 33.24 141.62 33.53 141.52 33.97C141.49 34.08 141.47 34.19 141.36 34.24C141.34 34.26 141.3 34.26 141.28 34.23C141.16 34.1 141.22 33.94 141.3 33.53C141.31 33.48 141.34 33.39 141.3 33.34C141.18 33.19 140.83 33.41 140.55 33.22C140.33 33.08 140.3 32.79 140.34 32.55C140.36 32.36 140.48 32.13 140.42 31.94C140.26 31.95 140.09 31.96 139.94 31.96C139.76 31.95 139.64 31.86 139.63 31.68C139.63 31.48 139.66 31.27 139.67 31.07C139.68 30.94 139.69 30.8 139.71 30.67C139.48 30.71 139.26 30.72 139.04 30.71Z" />
	<path id="Layer" class="shp10" d="M150.62 40.5C151.29 41.37 150.66 41.78 150.38 41.53C150.26 41.43 150.25 41.24 150.4 41.15C150.46 41.11 150.56 41.17 150.54 41.25C150.51 41.32 150.59 41.34 150.62 41.27C150.66 41.17 150.59 41.06 150.55 40.97C150.46 40.78 150.34 40.53 150.1 40.49C149.75 40.44 149.37 40.79 149.56 41.33C149.84 42.11 151.09 42.1 151.32 41.29C151.44 40.84 151.27 40.36 150.91 40.08C150.84 40.02 150.93 39.93 151 39.96C151.53 40.19 151.72 40.89 151.52 41.41C151.32 41.95 150.75 42.21 150.21 42.12C149.64 42.02 149.18 41.51 149.25 40.91C149.34 40.25 150.15 39.9 150.62 40.5Z" />
	<path id="Layer" class="shp5" d="M136.83 33.29C136.92 33.43 136.97 33.71 136.78 33.8C136.7 33.84 136.59 33.82 136.56 33.71C136.53 33.61 136.59 33.52 136.5 33.44C136.42 33.38 136.31 33.41 136.23 33.47C136.02 33.65 136.07 34.04 136.19 34.26C136.37 34.62 136.86 34.69 137.1 34.32C137.18 34.2 137.2 34.07 137.23 33.93C137.25 33.86 137.37 33.83 137.4 33.91C137.54 34.21 137.34 34.57 137.09 34.74C136.82 34.92 136.45 34.91 136.18 34.73C135.89 34.53 135.75 34.14 135.76 33.79C135.79 33.07 136.53 32.83 136.83 33.29Z" />
	<path id="Layer" class="shp9" d="M102.94 134.4C102.94 134.4 103.26 134.92 103.89 134.6C104.65 134.22 104.35 133.64 104.35 133.64L102.94 134.4Z" />
	<path id="Layer" class="shp9" d="M141.74 46.26C141.74 46.26 141.8 46.87 142.5 46.86C143.36 46.85 143.34 46.19 143.34 46.19L141.74 46.26Z" />
</svg>