<svg width="16" height="13" viewBox="0 0 16 13" fill="none" xmlns="http://www.w3.org/2000/svg">
<path d="M5.55478 12.0134L0.922781 7.40537C0.874781 7.34137 0.850781 7.27737 0.850781 7.21337C0.850781 7.13337 0.874781 7.06137 0.922781 6.99737L2.50678 5.43737C2.55478 5.38937 2.61078 5.36537 2.67478 5.36537C2.75478 5.36537 2.82678 5.38937 2.89078 5.43737L5.48278 8.02937C5.53078 8.07737 5.58678 8.10137 5.65078 8.10137C5.73078 8.10137 5.80278 8.07737 5.86678 8.02937C7.48278 6.30137 9.90678 3.72537 13.1388 0.301372C13.1868 0.237372 13.2508 0.205372 13.3308 0.205372C13.4108 0.205372 13.4748 0.229372 13.5228 0.277372L15.1548 1.83737C15.2188 1.88537 15.2508 1.94937 15.2508 2.02937C15.2508 2.09337 15.2268 2.15737 15.1788 2.22137C13.1148 4.39737 10.0348 7.66137 5.93878 12.0134C5.89078 12.0774 5.82678 12.1094 5.74678 12.1094C5.66678 12.1094 5.60278 12.0774 5.55478 12.0134Z" fill="#0DB3FB"/>
</svg>
